<svg width="86" height="85" viewBox="0 0 86 85" fill="none" xmlns="http://www.w3.org/2000/svg">
<g clip-path="url(#clip0_128_322)">
<path d="M73.3259 12.4479C65.2987 4.42077 54.6263 0.00012207 43.274 0.00012207C31.9217 0.00012207 21.2493 4.42077 13.2221 12.4479C5.1948 20.4751 0.773986 31.1479 0.773986 42.5C0.773986 53.8521 5.1948 64.5248 13.2221 72.552C21.2493 80.5791 31.9217 85 43.2742 85C54.6261 85 65.299 80.5791 73.3262 72.552C81.3533 64.5248 85.7742 53.8521 85.7742 42.5C85.7742 31.1479 81.353 20.4751 73.3259 12.4479ZM43.274 82.0482C21.4669 82.0482 3.72557 64.307 3.72557 42.5C3.72557 20.6929 21.4669 2.95154 43.274 2.95154C65.0811 2.95154 82.8221 20.6929 82.8221 42.4998C82.8221 64.307 65.0809 82.0482 43.274 82.0482Z" fill="black"/>
<path d="M30.9753 19.0575C30.5559 18.3584 29.6495 18.1313 28.9507 18.5501C21.8632 22.7973 17.0451 29.8908 15.7316 38.0117C15.6011 38.8167 16.1481 39.5744 16.9528 39.7046C17.0325 39.7174 17.112 39.7237 17.19 39.7237C17.9014 39.7237 18.5278 39.2082 18.6452 38.4832C19.8196 31.2237 24.1286 24.8813 30.4679 21.082C31.1672 20.663 31.3943 19.7567 30.9753 19.0575Z" fill="black"/>
<path d="M71.206 30.4271C69.5736 28.9061 68.4435 27.0092 67.938 24.9419C66.544 19.2403 62.5233 14.3625 57.1834 11.8933C56.4441 11.5513 55.5667 11.8736 55.2246 12.6135C54.8826 13.3534 55.2048 14.2303 55.9447 14.5725C60.4765 16.6679 63.8882 20.8067 65.0711 25.6432C65.7137 28.271 67.1393 30.672 69.1937 32.5866C72.0243 35.2243 73.5608 38.9576 73.41 42.8294C73.1388 49.7889 67.47 55.3848 60.5045 55.5689C56.0505 55.6856 51.8585 53.5837 49.2895 49.9436C47.6903 47.6779 45.527 45.9679 43.0333 44.9989C36.5339 42.473 32.2992 36.0869 32.496 29.1078C32.615 24.8752 34.355 20.8837 37.3951 17.8684C40.435 14.8534 44.4409 13.1456 48.6748 13.0596C49.4341 13.044 50.1988 13.0802 50.9457 13.1672C51.7559 13.2608 52.488 12.6811 52.5818 11.8714C52.6759 11.0619 52.0955 10.3293 51.286 10.2353C50.4068 10.1332 49.509 10.0909 48.6149 10.1087C43.6195 10.2099 38.8967 12.2215 35.3162 15.7728C31.7354 19.3245 29.6858 24.0307 29.5452 29.0248C29.3135 37.2481 34.304 44.7733 41.9636 47.7503C43.9148 48.5086 45.6141 49.8557 46.8775 51.6458C49.9333 55.9755 54.8688 58.5255 60.1481 58.5255C60.2925 58.5255 60.4371 58.5235 60.5819 58.5198C69.097 58.2945 76.0269 51.4532 76.3586 42.9446C76.5437 38.2132 74.6653 33.6509 71.206 30.4271Z" fill="black"/>
<path d="M51.801 18.6455C45.8517 18.6455 41.0117 23.4857 41.0117 29.4348C41.0117 35.384 45.8519 40.2241 51.801 40.2241C53.424 40.2241 54.9849 39.8724 56.4401 39.1782C57.1759 38.8275 57.4879 37.9467 57.1371 37.211C56.7864 36.4752 55.9049 36.1632 55.17 36.514C54.1143 37.0174 52.9807 37.2726 51.8008 37.2726C47.479 37.2726 43.9629 33.7565 43.9629 29.4347C43.9629 25.1128 47.479 21.5968 51.8008 21.5968C56.1229 21.5968 59.6389 25.1128 59.6389 29.4347C59.6389 31.0053 59.1762 32.5204 58.3012 33.816C57.8451 34.4915 58.0226 35.4089 58.6981 35.8651C59.3736 36.3215 60.2907 36.1437 60.7471 35.4681C61.953 33.6828 62.5907 31.5965 62.5907 29.4347C62.5907 23.4855 57.7503 18.6455 51.801 18.6455Z" fill="black"/>
<path d="M54.7428 58.4492C43.0884 56.4021 32.0657 51.3866 22.8656 43.9456C19.3333 41.0885 14.2786 41.387 11.1101 44.6379L11.0058 44.7448C9.29371 46.5016 8.39474 48.9136 8.53934 51.3625C8.68394 53.8112 9.86048 56.1004 11.7672 57.6432C13.7127 59.2173 15.7499 60.7254 17.8227 62.1256C18.4979 62.582 19.4153 62.4045 19.8717 61.729C20.3277 61.0536 20.1503 60.1364 19.4747 59.68C17.4721 58.3268 15.5032 56.8696 13.6234 55.3485C12.3419 54.3118 11.5829 52.8344 11.4858 51.1885C11.3885 49.5423 11.9687 47.9858 13.1192 46.8054L13.2221 46.7C15.3214 44.5456 18.6694 44.348 21.0094 46.2409C30.5977 53.9962 42.086 59.2232 54.2321 61.3566C57.196 61.8772 59.2468 64.5312 59.0024 67.5274L58.9903 67.6753C58.8562 69.3187 58.0638 70.779 56.7587 71.7872C55.4537 72.795 53.8412 73.1928 52.2179 72.9084C42.1653 71.1444 32.6113 67.6184 23.8217 62.4282C23.1204 62.014 22.2153 62.2468 21.8006 62.9487C21.3862 63.6506 21.6192 64.5556 22.3211 64.9698C31.4175 70.341 41.3049 73.9902 51.7082 75.8159C52.2079 75.9037 52.7111 75.9467 53.2125 75.9467C55.1339 75.9467 57.0243 75.3125 58.5636 74.123C60.505 72.6231 61.7329 70.3606 61.9327 67.9116L61.9445 67.7693C62.3132 63.2419 59.2174 59.2351 54.7428 58.4492Z" fill="black"/>
<path d="M53.5058 44.6841C54.3208 44.6841 54.9815 44.0234 54.9815 43.2084C54.9815 42.3934 54.3208 41.7327 53.5058 41.7327C52.6908 41.7327 52.0301 42.3934 52.0301 43.2084C52.0301 44.0234 52.6908 44.6841 53.5058 44.6841Z" fill="black"/>
<path d="M56.5223 50.587C57.3373 50.587 57.998 49.9263 57.998 49.1113C57.998 48.2963 57.3373 47.6356 56.5223 47.6356C55.7073 47.6356 55.0466 48.2963 55.0466 49.1113C55.0466 49.9263 55.7073 50.587 56.5223 50.587Z" fill="black"/>
<path d="M66.3607 42.4547C67.1757 42.4547 67.8364 41.794 67.8364 40.979C67.8364 40.164 67.1757 39.5033 66.3607 39.5033C65.5457 39.5033 64.885 40.164 64.885 40.979C64.885 41.794 65.5457 42.4547 66.3607 42.4547Z" fill="black"/>
</g>
<defs>
<clipPath id="clip0_128_322">
<rect width="85" height="85" fill="white" transform="translate(0.773987)"/>
</clipPath>
</defs>
</svg>
