<svg width="66" height="85" viewBox="0 0 66 85" fill="none" xmlns="http://www.w3.org/2000/svg">
<mask id="path-1-inside-1_128_241" fill="white">
<path d="M14.3491 0C11.7122 0 9.38762 1.8012 8.73472 4.35791L7.87068 7.72727H7.7273C6.05349 7.72727 4.52686 8.29379 3.40712 9.2516C2.28739 10.2094 1.57522 11.4712 1.09422 12.7983C0.132234 15.4525 3.05176e-05 18.5027 3.05176e-05 21.25C8.17433e-05 21.7623 0.203629 22.2537 0.565904 22.6159C0.92818 22.9782 1.41951 23.1818 1.93185 23.1818H4.09383L11.5343 81.1703C11.5366 81.1867 11.5392 81.203 11.5419 81.2194C11.901 83.5275 13.9177 85 16.1639 85H49.5142C51.7615 85 53.7777 83.5235 54.1362 81.2194C54.1389 81.203 54.1415 81.1867 54.1438 81.1703L61.5881 23.1818H63.75C64.2624 23.1818 64.7537 22.9782 65.116 22.6159C65.4783 22.2537 65.6818 21.7623 65.6819 21.25C65.6819 18.5027 65.5497 15.4525 64.5877 12.7983C64.1067 11.4712 63.3945 10.2094 62.2748 9.2516C61.155 8.29379 59.6284 7.72727 57.9546 7.72727H57.7735L56.9396 4.39187V4.38809C56.2959 1.819 53.9642 0 51.314 0H14.3491ZM14.3491 3.86364H51.314C52.2105 3.86364 52.9713 4.45804 53.1892 5.32759L53.7891 7.72727H11.8588L12.4776 5.31627C12.6979 4.45366 13.4585 3.86364 14.3491 3.86364ZM9.48933 11.5834C9.54579 11.5884 9.60244 11.5909 9.65912 11.5909H56.0228C56.0643 11.591 56.1058 11.5897 56.1473 11.5871C56.1862 11.5896 56.2252 11.5908 56.2642 11.5909H57.9546C58.8414 11.5909 59.3186 11.8047 59.7657 12.1871C60.2127 12.5694 60.6302 13.2109 60.958 14.1151C61.4359 15.4338 61.4899 17.4291 61.5843 19.3182H6.1162C5.98168 19.295 5.84509 19.2862 5.7087 19.2918C5.63153 19.296 5.55467 19.3048 5.47855 19.3182H4.0976C4.19203 17.4291 4.24598 15.4338 4.72393 14.1151C5.05164 13.2109 5.46919 12.5694 5.91622 12.1871C6.36326 11.8047 6.8405 11.5909 7.7273 11.5909H9.3686C9.40891 11.5897 9.44918 11.5871 9.48933 11.5834ZM7.99142 23.1818H57.6905L55.4606 40.5682H46.3335C43.7742 34.9375 38.8209 30.9323 32.8259 30.9166C32.7366 30.9135 32.6532 30.9183 32.5655 30.9242C26.6325 31.0246 21.7873 35.0104 19.2956 40.5682H10.2213L7.99142 23.1818ZM32.7353 34.769C32.7759 34.7711 32.7401 34.7727 32.7919 34.7727C37.4635 34.7727 41.4846 38.0231 43.3716 43.1641C43.5075 43.5353 43.7541 43.8559 44.0779 44.0826C44.4018 44.3093 44.7874 44.4312 45.1827 44.4318H45.3789H54.9625L53.725 54.0909H45.4506H45.1827C44.7852 54.0906 44.3973 54.2129 44.0718 54.4411C43.7463 54.6693 43.4992 54.9924 43.3641 55.3662C42.9395 56.5447 42.4551 57.6239 41.8662 58.5281C39.6767 61.8842 36.4819 63.7037 33.0107 63.7462H32.8824C29.4526 63.7462 26.2579 62.0044 24.0157 58.7243V58.7205C23.3593 57.762 22.8192 56.615 22.3593 55.3587C22.2232 54.9868 21.9761 54.6658 21.6515 54.4391C21.3269 54.2123 20.9404 54.0908 20.5445 54.0909H20.3256H11.9569L10.7194 44.4318H20.2539H20.4577C20.8545 44.4314 21.2417 44.3087 21.5664 44.0806C21.8911 43.8524 22.1376 43.5298 22.2725 43.1565C24.1046 38.073 28.0343 34.8246 32.6825 34.7727C32.7001 34.7717 32.7177 34.7705 32.7353 34.769ZM32.724 38.6364C30.3394 38.6624 28.3304 40.1392 27.0493 42.1038C25.7681 44.0685 25.0724 46.5954 25.1024 49.3444C25.1323 52.0934 25.884 54.6072 27.2077 56.5434C28.5315 58.4796 30.5733 59.9124 32.9579 59.8864C35.3425 59.8604 37.3514 58.3835 38.6326 56.4189C39.9138 54.4543 40.6095 51.9273 40.5795 49.1784C40.5496 46.4294 39.7979 43.9155 38.4742 41.9793C37.1504 40.0431 35.1086 38.6103 32.724 38.6364ZM32.7655 42.5C33.5867 42.4911 34.4706 42.9732 35.2821 44.1602C36.0936 45.3471 36.6935 47.168 36.7159 49.2199C36.7383 51.2717 36.1807 53.1053 35.3953 54.3097C34.6099 55.5141 33.7377 56.0138 32.9164 56.0227C32.0951 56.0316 31.2113 55.5495 30.3998 54.3626C29.5883 53.1756 28.9884 51.3547 28.966 49.3029C28.9436 47.251 29.5012 45.4174 30.2866 44.213C31.072 43.0086 31.9442 42.509 32.7655 42.5ZM12.4512 57.9545H19.3597C19.793 58.9589 20.1956 59.9781 20.8274 60.9013C23.693 65.0935 28.1137 67.6099 32.8824 67.6099H33.0183C33.0246 67.6099 33.0309 67.6099 33.0371 67.6099C37.8666 67.5582 42.2968 64.9374 45.0997 60.641H45.1035C45.6597 59.7873 46.0055 58.8645 46.3901 57.9545H53.2307L50.3216 80.627C50.3092 80.7067 49.8941 81.1364 49.5142 81.1364H16.1639C15.7906 81.1364 15.372 80.7027 15.3603 80.627L12.4512 57.9545Z"/>
</mask>
<path d="M14.3491 0C11.7122 0 9.38762 1.8012 8.73472 4.35791L7.87068 7.72727H7.7273C6.05349 7.72727 4.52686 8.29379 3.40712 9.2516C2.28739 10.2094 1.57522 11.4712 1.09422 12.7983C0.132234 15.4525 3.05176e-05 18.5027 3.05176e-05 21.25C8.17433e-05 21.7623 0.203629 22.2537 0.565904 22.6159C0.92818 22.9782 1.41951 23.1818 1.93185 23.1818H4.09383L11.5343 81.1703C11.5366 81.1867 11.5392 81.203 11.5419 81.2194C11.901 83.5275 13.9177 85 16.1639 85H49.5142C51.7615 85 53.7777 83.5235 54.1362 81.2194C54.1389 81.203 54.1415 81.1867 54.1438 81.1703L61.5881 23.1818H63.75C64.2624 23.1818 64.7537 22.9782 65.116 22.6159C65.4783 22.2537 65.6818 21.7623 65.6819 21.25C65.6819 18.5027 65.5497 15.4525 64.5877 12.7983C64.1067 11.4712 63.3945 10.2094 62.2748 9.2516C61.155 8.29379 59.6284 7.72727 57.9546 7.72727H57.7735L56.9396 4.39187V4.38809C56.2959 1.819 53.9642 0 51.314 0H14.3491ZM14.3491 3.86364H51.314C52.2105 3.86364 52.9713 4.45804 53.1892 5.32759L53.7891 7.72727H11.8588L12.4776 5.31627C12.6979 4.45366 13.4585 3.86364 14.3491 3.86364ZM9.48933 11.5834C9.54579 11.5884 9.60244 11.5909 9.65912 11.5909H56.0228C56.0643 11.591 56.1058 11.5897 56.1473 11.5871C56.1862 11.5896 56.2252 11.5908 56.2642 11.5909H57.9546C58.8414 11.5909 59.3186 11.8047 59.7657 12.1871C60.2127 12.5694 60.6302 13.2109 60.958 14.1151C61.4359 15.4338 61.4899 17.4291 61.5843 19.3182H6.1162C5.98168 19.295 5.84509 19.2862 5.7087 19.2918C5.63153 19.296 5.55467 19.3048 5.47855 19.3182H4.0976C4.19203 17.4291 4.24598 15.4338 4.72393 14.1151C5.05164 13.2109 5.46919 12.5694 5.91622 12.1871C6.36326 11.8047 6.8405 11.5909 7.7273 11.5909H9.3686C9.40891 11.5897 9.44918 11.5871 9.48933 11.5834ZM7.99142 23.1818H57.6905L55.4606 40.5682H46.3335C43.7742 34.9375 38.8209 30.9323 32.8259 30.9166C32.7366 30.9135 32.6532 30.9183 32.5655 30.9242C26.6325 31.0246 21.7873 35.0104 19.2956 40.5682H10.2213L7.99142 23.1818ZM32.7353 34.769C32.7759 34.7711 32.7401 34.7727 32.7919 34.7727C37.4635 34.7727 41.4846 38.0231 43.3716 43.1641C43.5075 43.5353 43.7541 43.8559 44.0779 44.0826C44.4018 44.3093 44.7874 44.4312 45.1827 44.4318H45.3789H54.9625L53.725 54.0909H45.4506H45.1827C44.7852 54.0906 44.3973 54.2129 44.0718 54.4411C43.7463 54.6693 43.4992 54.9924 43.3641 55.3662C42.9395 56.5447 42.4551 57.6239 41.8662 58.5281C39.6767 61.8842 36.4819 63.7037 33.0107 63.7462H32.8824C29.4526 63.7462 26.2579 62.0044 24.0157 58.7243V58.7205C23.3593 57.762 22.8192 56.615 22.3593 55.3587C22.2232 54.9868 21.9761 54.6658 21.6515 54.4391C21.3269 54.2123 20.9404 54.0908 20.5445 54.0909H20.3256H11.9569L10.7194 44.4318H20.2539H20.4577C20.8545 44.4314 21.2417 44.3087 21.5664 44.0806C21.8911 43.8524 22.1376 43.5298 22.2725 43.1565C24.1046 38.073 28.0343 34.8246 32.6825 34.7727C32.7001 34.7717 32.7177 34.7705 32.7353 34.769ZM32.724 38.6364C30.3394 38.6624 28.3304 40.1392 27.0493 42.1038C25.7681 44.0685 25.0724 46.5954 25.1024 49.3444C25.1323 52.0934 25.884 54.6072 27.2077 56.5434C28.5315 58.4796 30.5733 59.9124 32.9579 59.8864C35.3425 59.8604 37.3514 58.3835 38.6326 56.4189C39.9138 54.4543 40.6095 51.9273 40.5795 49.1784C40.5496 46.4294 39.7979 43.9155 38.4742 41.9793C37.1504 40.0431 35.1086 38.6103 32.724 38.6364ZM32.7655 42.5C33.5867 42.4911 34.4706 42.9732 35.2821 44.1602C36.0936 45.3471 36.6935 47.168 36.7159 49.2199C36.7383 51.2717 36.1807 53.1053 35.3953 54.3097C34.6099 55.5141 33.7377 56.0138 32.9164 56.0227C32.0951 56.0316 31.2113 55.5495 30.3998 54.3626C29.5883 53.1756 28.9884 51.3547 28.966 49.3029C28.9436 47.251 29.5012 45.4174 30.2866 44.213C31.072 43.0086 31.9442 42.509 32.7655 42.5ZM12.4512 57.9545H19.3597C19.793 58.9589 20.1956 59.9781 20.8274 60.9013C23.693 65.0935 28.1137 67.6099 32.8824 67.6099H33.0183C33.0246 67.6099 33.0309 67.6099 33.0371 67.6099C37.8666 67.5582 42.2968 64.9374 45.0997 60.641H45.1035C45.6597 59.7873 46.0055 58.8645 46.3901 57.9545H53.2307L50.3216 80.627C50.3092 80.7067 49.8941 81.1364 49.5142 81.1364H16.1639C15.7906 81.1364 15.372 80.7027 15.3603 80.627L12.4512 57.9545Z" stroke="black" stroke-width="4" mask="url(#path-1-inside-1_128_241)"/>
</svg>
