<svg width="86" height="55" viewBox="0 0 86 55" fill="none" xmlns="http://www.w3.org/2000/svg">
<path d="M48.531 48.943C45.7227 48.9509 43.0517 48.3513 40.5101 47.1779C39.9406 46.9149 39.4826 46.9973 38.938 47.2847C35.2488 49.2311 31.3453 49.7445 27.2759 48.8744C26.3865 48.6841 25.8286 48.9097 25.1609 49.5666C18.9823 56.4779 5.16037 56.9982 1.97949 46.9531C-0.80617 38.4309 1.29678 31.1021 7.6579 25.0223C8.68283 21.7417 10.4315 18.934 13.022 16.6761C13.368 16.3745 13.4469 16.1481 13.285 15.7102C12.3319 12.4786 14.816 9.31465 17.3379 7.60137C18.4071 6.8652 19.5367 6.19064 20.7087 5.63597C28.7586 1.96767 38.2898 -2.81597 46.8258 2.09417C47.1159 2.24773 47.5817 2.33008 47.859 2.20582C51.139 0.735824 54.4841 0.669474 57.8763 1.68928C60.2208 2.3941 62.354 3.534 64.3246 4.99177C70.2343 6.68943 76.098 8.2997 80.9 12.4456C87.3264 16.8175 88.1129 28.2913 78.9036 29.5795C76.6038 29.6263 76.5334 29.6973 75.8148 31.8456C74.3923 34.786 72.0679 36.6471 68.8853 37.2365C62.8389 38.7083 65.091 48.0625 48.531 48.943ZM17.6598 14.1365C24.2817 13.5631 30.3139 16.7038 34.5038 21.7167C38.8971 27.4745 41.4636 34.6555 42.0265 41.8587C42.0315 42.043 42.2724 42.2721 42.4599 42.391C49.0969 45.8845 58.2562 43.4754 61.6155 36.4613C61.9856 35.7277 62.3697 35.1088 61.7918 34.3225C61.1766 30.6296 60.5215 26.917 59.068 23.4139C55.0412 14.1781 46.1127 2.59151 34.8483 5.26493C29.533 7.03341 20.8152 9.35277 17.6598 14.1365ZM13.0379 24.3491C21.0301 25.4884 24.6595 36.0008 26.3741 42.8191C26.476 43.2227 26.5885 43.4221 27.0312 43.4837C27.7874 43.5889 28.5317 43.7838 29.2797 43.9468C31.0306 44.5417 36.3398 43.7364 37.0353 42.0231C35.7302 32.8622 31.9512 22.0351 22.0976 19.3838C18.078 18.0335 14.7954 20.9404 13.0379 24.3491ZM13.2192 49.4358C16.2271 49.4079 18.856 48.422 21.0719 46.3495C21.5977 45.8577 21.9603 45.409 21.4528 44.6825C19.6644 39.8718 18.7193 34.3631 14.7153 30.7875C5.87973 24.2705 1.604 50.4392 13.2192 49.4358ZM66.5666 32.6684C69.54 32.6454 71.9172 30.7619 71.8193 27.9124C71.5144 27.0017 71.0554 26.1316 70.8442 25.2028C68.9351 16.1108 62.532 4.99022 51.9453 5.68273C60.5321 12.7702 65.119 21.8601 66.5666 32.6684ZM71.1058 12.2576C73.3034 15.8804 74.3761 19.8963 75.6077 23.9042C76.1137 25.7492 79.5935 23.879 80.4508 23.0353C81.0584 22.5087 81.2966 21.89 81.0155 21.1987C79.6627 16.5861 75.2503 13.9335 71.1058 12.2576Z" fill="black"/>
</svg>
