<svg width="56" height="85" viewBox="0 0 56 85" fill="none" xmlns="http://www.w3.org/2000/svg">
<path d="M54.8806 28.0384C54.6227 27.7524 54.2535 27.5889 53.8657 27.5889H53.0431V8.32227C53.0431 7.85929 52.8021 7.42914 52.4051 7.18345C52.0081 6.93776 51.5112 6.91127 51.09 7.11358L43.1957 10.9018C42.7275 11.1266 42.4302 11.5959 42.4302 12.1105V19.083L37.2527 16.9936V4.54323C37.2527 4.08064 37.0119 3.65049 36.6153 3.4048C36.2187 3.15891 35.7221 3.13242 35.3007 3.33397L29.3553 6.179V4.71521C29.3553 4.1793 29.033 3.69444 28.535 3.48177L20.641 0.110229C20.2209 -0.0692405 19.7378 -0.0275882 19.355 0.22079C18.9726 0.469169 18.7423 0.891259 18.7423 1.34368V15.5575L13.565 18.2568V6.73065C13.565 6.28841 13.3447 5.87438 12.9761 5.6237C12.6073 5.37301 12.1376 5.31754 11.7196 5.47571L3.82307 8.46297C3.29716 8.66201 2.94954 9.16107 2.94954 9.71791V27.5889H2.13407C1.74644 27.5889 1.37726 27.7524 1.11935 28.0384C0.861255 28.3244 0.739101 28.7056 0.783574 29.0863L7.16145 83.81C7.20475 84.182 7.40343 84.5192 7.7091 84.7405C8.01498 84.9616 8.40047 85.0469 8.77218 84.9751C21.5306 82.5168 34.4691 82.5168 47.2278 84.9751C47.314 84.9918 47.4012 84.9998 47.4878 84.9998C47.7743 84.9998 48.0561 84.9104 48.2907 84.7405C48.5966 84.5194 48.795 84.182 48.8383 83.81L55.2164 29.0863C55.2607 28.7058 55.1385 28.3244 54.8806 28.0384ZM45.1488 12.9518L50.3242 10.4682V27.5889H48.8548C48.1427 27.5889 47.5513 28.1321 47.4991 28.8338L47.3105 31.365C47.1134 34.011 46.3686 36.5489 45.1488 38.8469V12.9518ZM42.43 21.9856V42.7202C42.0344 43.1565 41.6178 43.5772 41.1793 43.9799C39.9813 45.0802 38.6603 46.0113 37.2525 46.7695V19.8962L42.43 21.9856ZM34.5334 6.68669L34.5332 47.9745C34.0961 48.1293 33.6539 48.2698 33.206 48.393V32.6073C33.206 32.0595 32.8697 31.5666 32.3556 31.3614L29.355 30.1638V9.16453L34.5334 6.68669ZM30.4872 33.5139V48.936C29.6672 49.0402 28.8372 49.0972 27.9998 49.0972C27.0944 49.0972 26.1968 49.0345 25.3122 48.9126V31.4485L30.4872 33.5139ZM26.6361 5.59836V8.31094C26.6361 8.31498 26.6353 8.31881 26.6353 8.32285V29.0788L24.462 28.2114C24.0429 28.0442 23.5671 28.0935 23.1926 28.3434C22.818 28.5931 22.5935 29.0106 22.5935 29.4573V48.3398C22.2117 48.2304 21.8352 48.1055 21.4615 47.973L21.4613 3.38848L26.6361 5.59836ZM18.7423 18.5958V46.767C17.3364 46.0094 16.0172 45.079 14.8207 43.9801C14.3804 43.5759 13.9621 43.1534 13.565 42.7152V21.295L18.7423 18.5958ZM5.6686 10.6423L10.8463 8.68351V38.8371C9.62959 36.5416 8.88637 34.0072 8.68964 31.3649L8.50107 28.8337C8.44883 28.1317 7.85748 27.5887 7.14533 27.5887H5.66879L5.6686 10.6423ZM46.3044 82.0698C40.2269 80.9859 34.1139 80.444 28 80.444C21.886 80.444 15.7729 80.9859 9.69562 82.0698L8.74324 73.8994H47.2565L46.3044 82.0698ZM47.5698 71.2121H8.42999L6.72973 56.6242H49.2699L47.5698 71.2121ZM49.5831 53.937H6.41667L3.65916 30.2761H5.88203L5.97796 31.5624C6.38871 37.0764 8.87181 42.1856 12.9701 45.9487C17.0684 49.712 22.4059 51.7845 28 51.7845C33.5941 51.7845 38.9316 49.712 43.0299 45.9487C47.1282 42.1856 49.6115 37.0764 50.0222 31.5624L50.118 30.2761H52.3408L49.5831 53.937Z" fill="black"/>
</svg>
