<svg width="82" height="74" viewBox="0 0 82 74" fill="none" xmlns="http://www.w3.org/2000/svg">
<path d="M14.9888 0.776735C14.5919 0.776703 14.2054 0.892692 13.8858 1.10775C13.5662 1.32281 13.3302 1.62566 13.2124 1.97205L12.0244 5.30564C10.6189 9.23949 11.0943 13.7663 13.4231 17.0297C14.9594 19.1825 15.4426 22.9246 14.4003 25.8418L13.2124 29.172C13.1365 29.3844 13.1072 29.6083 13.126 29.831C13.1448 30.0537 13.2115 30.2709 13.3221 30.4701C13.4328 30.6692 13.5852 30.8465 13.7709 30.9918C13.9565 31.1372 14.1716 31.2476 14.4039 31.317C14.6363 31.3863 14.8813 31.4131 15.1249 31.3959C15.3686 31.3787 15.6062 31.3178 15.8241 31.2167C16.042 31.1155 16.236 30.9762 16.395 30.8065C16.554 30.6369 16.6749 30.4402 16.7507 30.2279L17.9387 26.8943C19.3442 22.9605 18.8688 18.4337 16.54 15.1703C15.0037 13.0175 14.5205 9.27533 15.5628 6.35818L16.7507 3.02791C16.8467 2.77177 16.8744 2.49838 16.8315 2.23048C16.7885 1.96259 16.6762 1.70795 16.5039 1.48774C16.3315 1.26753 16.1041 1.08812 15.8406 0.964451C15.5771 0.840782 15.285 0.776425 14.9888 0.776735ZM28.0088 0.776735C27.6119 0.776703 27.2254 0.892692 26.9058 1.10775C26.5862 1.32281 26.3502 1.62566 26.2324 1.97205L25.0444 5.30564C23.6389 9.23949 24.1143 13.7663 26.4431 17.0297C27.9794 19.1825 28.4626 22.9246 27.4203 25.8418L26.2324 29.172C26.1565 29.3844 26.1272 29.6083 26.146 29.831C26.1648 30.0537 26.2315 30.2709 26.3421 30.4701C26.4528 30.6692 26.6052 30.8465 26.7909 30.9918C26.9765 31.1372 27.1916 31.2476 27.4239 31.317C27.6563 31.3863 27.9013 31.4131 28.1449 31.3959C28.3886 31.3787 28.6262 31.3178 28.8441 31.2167C29.062 31.1155 29.256 30.9762 29.415 30.8065C29.574 30.6369 29.6949 30.4402 29.7707 30.2279L30.9587 26.8943C32.3642 22.9605 31.8888 18.4337 29.56 15.1703C28.0237 13.0175 27.5405 9.27533 28.5828 6.35818L29.7707 3.02791C29.8667 2.77177 29.8944 2.49838 29.8515 2.23048C29.8085 1.96259 29.6962 1.70795 29.5239 1.48774C29.3515 1.26753 29.1241 1.08812 28.8606 0.964451C28.5971 0.840782 28.305 0.776425 28.0088 0.776735ZM41.0288 0.776735C40.6319 0.776703 40.2454 0.892692 39.9258 1.10775C39.6062 1.32281 39.3702 1.62566 39.2524 1.97205L38.0644 5.30564C36.6589 9.23949 37.1343 13.7663 39.4631 17.0297C40.9994 19.1825 41.4826 22.9246 40.4403 25.8418L39.2524 29.172C39.1765 29.3844 39.1472 29.6083 39.166 29.831C39.1848 30.0537 39.2515 30.2709 39.3621 30.4701C39.4728 30.6692 39.6252 30.8465 39.8109 30.9918C39.9965 31.1372 40.2116 31.2476 40.4439 31.317C40.6763 31.3863 40.9213 31.4131 41.1649 31.3959C41.4086 31.3787 41.6462 31.3178 41.8641 31.2167C42.082 31.1155 42.276 30.9762 42.435 30.8065C42.594 30.6369 42.7149 30.4402 42.7907 30.2279L43.9787 26.8943C45.3842 22.9605 44.9088 18.4337 42.58 15.1703C41.0437 13.0175 40.5605 9.27533 41.6028 6.35818L42.7907 3.02791C42.8867 2.77177 42.9144 2.49838 42.8715 2.23048C42.8286 1.96259 42.7162 1.70795 42.5439 1.48774C42.3715 1.26753 42.1441 1.08812 41.8806 0.964451C41.6171 0.840782 41.325 0.776425 41.0288 0.776735ZM75.6277 11.0099C75.208 11.009 74.7889 11.0463 74.378 11.1195C72.7347 11.4123 71.2152 12.2878 70.2439 13.6695L70.3965 13.4836L47.2664 38.2H1.96154C1.46826 38.2 0.995187 38.3791 0.64638 38.6979C0.297573 39.0167 0.101594 39.4491 0.101544 39.9V45C0.101544 45.3426 0.230137 45.6538 0.246857 45.9927C0.100691 46.2842 0.0476908 46.6075 0.0939723 46.9254C0.140254 47.2432 0.283931 47.5426 0.508419 47.789C1.48385 54.8711 5.79325 61.0913 11.4795 65.6191C17.9145 70.7431 25.856 73.9 32.6515 73.9H49.3915C56.1871 73.9 64.1286 70.7431 70.5636 65.6191C76.9986 60.4951 81.9416 53.2733 81.9416 45V39.9C81.9415 39.4491 81.7455 39.0167 81.3967 38.6979C81.0479 38.3791 80.5748 38.2 80.0816 38.2H61.3653L80.463 20.516C80.5146 20.4688 80.5631 20.4189 80.6083 20.3666C82.813 17.7713 82.1931 13.9615 79.2569 12.0658C78.1561 11.3551 76.887 11.0128 75.6277 11.0099ZM75.595 14.39C76.1141 14.3937 76.6427 14.5399 77.1099 14.8416C78.346 15.6396 78.5879 17.1561 77.6766 18.2549L56.1377 38.2H52.1634L73.2228 15.6949C73.277 15.6361 73.3268 15.5739 73.3717 15.509C73.7843 14.922 74.4076 14.5535 75.0828 14.4332C75.2516 14.4031 75.422 14.3888 75.595 14.39ZM3.82154 41.6H47.8585C48.0308 41.6222 48.2057 41.6222 48.378 41.6H56.6535C56.8175 41.62 56.9837 41.62 57.1476 41.6H78.2216V45C78.2216 52.0266 73.9597 58.4048 68.1187 63.0558C62.2777 67.7069 54.872 70.5 49.3915 70.5H32.6515C27.1711 70.5 19.7654 67.7069 13.9244 63.0558C9.05121 59.1755 5.43986 54.0583 4.32287 48.4H70.7816C71.028 48.4032 71.2727 48.3615 71.5015 48.2775C71.7302 48.1935 71.9383 48.0688 72.1139 47.9106C72.2894 47.7525 72.4288 47.564 72.5239 47.3561C72.6191 47.1483 72.6681 46.9253 72.6681 46.7C72.6681 46.4747 72.6191 46.2516 72.5239 46.0438C72.4288 45.836 72.2894 45.6475 72.1139 45.4893C71.9383 45.3311 71.7302 45.2064 71.5015 45.1224C71.2727 45.0384 71.028 44.9968 70.7816 45H3.82154V41.6Z" fill="black"/>
</svg>
