<svg width="55" height="85" viewBox="0 0 55 85" fill="none" xmlns="http://www.w3.org/2000/svg">
<path d="M9.17779 8.84749e-07C8.93503 -0.000283602 8.69713 0.068044 8.49152 0.197108C8.28591 0.326171 8.12096 0.510715 8.01568 0.729464L5.89018 5.15152H3.90806C1.84328 5.15152 0.260742 6.95455 0.260742 9.01515C0.261594 9.33546 0.381765 9.64396 0.597804 9.88045C0.939691 11.2646 1.84363 12.4527 3.17105 12.7807L10.7851 83.8479C10.8187 84.1646 10.9684 84.4575 11.2053 84.6703C11.4422 84.883 11.7496 85.0005 12.068 85H43.8323C44.1543 85 44.4645 84.8793 44.702 84.6619C44.9394 84.4445 45.0868 84.146 45.1151 83.8253L51.459 12.7757C52.7765 12.4414 53.6748 11.2583 54.0146 9.88045C54.2297 9.64358 54.349 9.33513 54.3491 9.01515C54.3491 6.95455 52.7666 5.15152 50.7018 5.15152H48.7272L46.6043 0.729464C46.499 0.510715 46.334 0.326171 46.1284 0.197108C45.9228 0.068044 45.6849 -0.000283602 45.4422 8.84749e-07H9.17779ZM9.98775 2.57576H44.6322L45.8672 5.15152H8.75269L9.98775 2.57576ZM3.90806 7.72727H50.7018C51.2334 7.72727 51.7734 8.24243 51.7734 9.01515C51.7741 9.78724 51.2359 10.303 50.7043 10.303H50.6641C50.4127 10.2241 50.1432 10.2241 49.8919 10.303H17.7402C17.697 10.2952 17.6532 10.2919 17.6094 10.293C17.5765 10.2938 17.5437 10.2972 17.5113 10.303H4.54696C4.46886 10.2899 4.38971 10.284 4.31052 10.2854C4.25149 10.2872 4.19266 10.2931 4.13444 10.303H3.90806C3.37647 10.303 2.8365 9.78788 2.8365 9.01515C2.8365 8.24242 3.37647 7.72727 3.90806 7.72727ZM5.77447 12.8788H17.0032L17.1088 23.1642C16.8404 23.4302 15.4738 24.7886 13.9495 26.4845C13.1094 27.4191 12.2667 28.409 11.6202 29.2942C11.297 29.7368 11.0225 30.1513 10.8178 30.5368C10.6131 30.9223 10.4581 31.2613 10.4581 31.6838V43.6093C10.4581 45.6683 12.1457 47.3597 14.2061 47.3597H21.6239C23.6833 47.3597 25.3744 45.6686 25.3744 43.6093V31.6838C25.3744 31.2512 25.2095 30.9129 24.9946 30.5268C24.7796 30.1406 24.4907 29.7242 24.1519 29.2816C23.4744 28.3965 22.5923 27.4089 21.712 26.4745C20.1125 24.7768 18.6755 23.415 18.3967 23.1516L18.291 12.8788H48.8656L48.0607 21.8939H24.0664C23.981 21.8927 23.8963 21.9085 23.8171 21.9403C23.738 21.9721 23.6659 22.0194 23.6051 22.0793C23.5444 22.1392 23.4961 22.2106 23.4632 22.2893C23.4302 22.3681 23.4133 22.4525 23.4133 22.5379C23.4133 22.6232 23.4302 22.7077 23.4632 22.7864C23.4961 22.8652 23.5444 22.9366 23.6051 22.9965C23.6659 23.0564 23.738 23.1036 23.8171 23.1354C23.8963 23.1673 23.981 23.183 24.0664 23.1818H47.945L44.6096 60.5303H10.8782L6.87873 23.1818H12.4755C12.5608 23.183 12.6455 23.1673 12.7247 23.1354C12.8039 23.1036 12.876 23.0564 12.9367 22.9965C12.9975 22.9366 13.0457 22.8652 13.0787 22.7864C13.1116 22.7077 13.1286 22.6232 13.1286 22.5379C13.1286 22.4525 13.1116 22.3681 13.0787 22.2893C13.0457 22.2106 12.9975 22.1392 12.9367 22.0793C12.876 22.0194 12.8039 21.9721 12.7247 21.9403C12.6455 21.9085 12.5608 21.8927 12.4755 21.8939H6.74038L5.77447 12.8788ZM17.7678 24.349C18.1361 24.698 19.2729 25.7644 20.7737 27.3574C21.6371 28.2738 22.4978 29.2405 23.1281 30.0639C23.4433 30.4756 23.7011 30.8539 23.8677 31.1531C24.0342 31.4522 24.0865 31.6892 24.0865 31.6838V43.6093C24.0865 44.9654 22.9801 46.0718 21.6239 46.0718H14.2061C12.8484 46.0718 11.746 44.9657 11.746 43.6093V31.6838C11.746 31.6792 11.7956 31.4403 11.9548 31.1405C12.114 30.8407 12.361 30.4655 12.6616 30.0539C13.2628 29.2305 14.0843 28.261 14.9078 27.3448C16.3349 25.7571 17.4108 24.7037 17.7678 24.349ZM27.92 25.7475C27.8354 25.7488 27.7519 25.7668 27.6743 25.8004C27.5967 25.834 27.5264 25.8825 27.4676 25.9432C27.4087 26.004 27.3624 26.0757 27.3312 26.1543C27.3001 26.233 27.2848 26.3169 27.2861 26.4015V57.3106C27.2849 57.3959 27.3006 57.4807 27.3325 57.5598C27.3643 57.639 27.4115 57.7111 27.4714 57.7719C27.5313 57.8326 27.6027 57.8809 27.6815 57.9138C27.7602 57.9468 27.8447 57.9637 27.93 57.9637C28.0154 57.9637 28.0998 57.9468 28.1786 57.9138C28.2573 57.8809 28.3287 57.8326 28.3886 57.7719C28.4485 57.7111 28.4958 57.639 28.5276 57.5598C28.5594 57.4807 28.5752 57.3959 28.574 57.3106V26.4015C28.5753 26.3153 28.5593 26.2296 28.5269 26.1497C28.4945 26.0697 28.4464 25.9971 28.3854 25.9361C28.3244 25.8751 28.2518 25.8269 28.1718 25.7945C28.0919 25.7622 28.0062 25.7462 27.92 25.7475ZM35.524 25.9412C35.4394 25.9399 35.3554 25.9552 35.2768 25.9864C35.1982 26.0175 35.1264 26.0638 35.0657 26.1227C35.005 26.1815 34.9564 26.2518 34.9228 26.3294C34.8893 26.407 34.8713 26.4905 34.87 26.5751C34.5519 36.9309 34.2335 47.2869 33.9141 57.6426C33.9066 57.73 33.9169 57.8179 33.9445 57.9011C33.9722 57.9843 34.0165 58.061 34.0748 58.1265C34.1331 58.1919 34.2041 58.2448 34.2836 58.2818C34.363 58.3189 34.4492 58.3393 34.5368 58.3419C34.6245 58.3445 34.7117 58.3291 34.7932 58.2968C34.8747 58.2645 34.9487 58.2159 35.0107 58.1539C35.0728 58.092 35.1215 58.0181 35.154 57.9366C35.1864 57.8552 35.2019 57.768 35.1995 57.6804C35.5189 47.3245 35.8372 36.9686 36.1553 26.6128C36.159 26.527 36.1455 26.4413 36.1156 26.3608C36.0857 26.2803 36.04 26.2066 35.9811 26.144C35.9223 26.0814 35.8516 26.0312 35.773 25.9964C35.6945 25.9616 35.6098 25.9428 35.524 25.9412ZM42.5394 25.9764C42.3803 25.9856 42.2303 26.0534 42.1183 26.1668C42.0064 26.2802 41.9404 26.431 41.9332 26.5902C41.2995 36.9099 40.6665 47.2311 40.0315 57.5496C40.0246 57.635 40.0347 57.7209 40.0614 57.8024C40.0881 57.8838 40.1307 57.9591 40.1869 58.0239C40.243 58.0886 40.3115 58.1415 40.3884 58.1795C40.4652 58.2174 40.5489 58.2396 40.6344 58.2448C40.72 58.25 40.8057 58.2381 40.8866 58.2097C40.9674 58.1813 41.0418 58.1371 41.1054 58.0796C41.169 58.0221 41.2204 57.9525 41.2567 57.8749C41.293 57.7973 41.3135 57.7132 41.3169 57.6275C41.9518 47.309 42.5849 36.9904 43.2185 26.6707C43.2254 26.5845 43.2148 26.4978 43.1874 26.4157C43.16 26.3337 43.1163 26.258 43.059 26.1932C43.0018 26.1285 42.932 26.0759 42.854 26.0386C42.7759 26.0014 42.6912 25.9802 42.6048 25.9764C42.583 25.9753 42.5612 25.9753 42.5394 25.9764ZM17.9137 28.0415C16.7655 28.0415 15.8209 28.9862 15.8209 30.1343C15.8209 31.2825 16.7655 32.2272 17.9137 32.2272C19.0619 32.2272 20.0065 31.2825 20.0065 30.1343C20.0065 28.9862 19.0619 28.0415 17.9137 28.0415ZM17.9137 29.3294C18.3659 29.3294 18.7187 29.6822 18.7187 30.1343C18.7187 30.5865 18.3659 30.9393 17.9137 30.9393C17.4616 30.9393 17.1088 30.5865 17.1088 30.1343C17.1088 29.6822 17.4616 29.3294 17.9137 29.3294ZM14.606 48.2099C14.4356 48.2178 14.2753 48.2929 14.1602 48.4188C14.0452 48.5447 13.9848 48.7111 13.9922 48.8815C14.07 51.4128 14.1045 52.5539 14.1205 53.0747V53.0772C14.1206 53.0785 14.1204 53.0825 14.1205 53.0873C14.1206 53.0892 14.1205 53.0949 14.1205 53.0973C14.1207 53.1017 14.1229 53.1283 14.123 53.1325C14.1231 53.1349 14.123 53.1351 14.123 53.1376C14.1232 53.1414 14.1229 53.1665 14.123 53.1703C14.1242 53.209 14.1239 53.2281 14.1256 53.281C14.1271 53.3296 14.1294 53.346 14.1306 53.3841C14.1307 53.3888 14.1304 53.3893 14.1306 53.3941C14.1308 53.4015 14.1304 53.4206 14.1306 53.4268C14.1314 53.4515 14.1327 53.4674 14.1331 53.4772C14.1331 53.4784 14.1331 53.4859 14.1331 53.4872C14.1331 53.4882 14.1331 53.4937 14.1331 53.4948C14.1492 54.0165 14.1837 55.1522 14.2614 57.6804C14.2638 57.765 14.2829 57.8482 14.3176 57.9254C14.3522 58.0027 14.4017 58.0723 14.4632 58.1304C14.5248 58.1884 14.5972 58.2338 14.6763 58.2639C14.7554 58.294 14.8396 58.3082 14.9242 58.3057C15.0088 58.3032 15.0921 58.2841 15.1693 58.2495C15.2465 58.2148 15.3161 58.1653 15.3741 58.1037C15.4322 58.0421 15.4775 57.9697 15.5076 57.8906C15.5376 57.8115 15.5518 57.7272 15.5493 57.6426C15.4715 55.1114 15.4345 53.9703 15.4185 53.4495H15.421V53.447C15.4209 53.4428 15.419 53.4028 15.4185 53.3866C15.4183 53.3794 15.4187 53.3575 15.4185 53.3489C15.4173 53.3108 15.415 53.2937 15.4134 53.2432C15.4118 53.1898 15.4122 53.1693 15.4109 53.13C15.4106 53.1206 15.4088 53.0594 15.4084 53.0495V53.047C15.4083 53.0421 15.4085 53.0389 15.4084 53.037C15.3924 52.5167 15.3554 51.3766 15.2776 48.8438C15.2763 48.7577 15.2578 48.6728 15.2231 48.5939C15.1885 48.5151 15.1383 48.4441 15.0757 48.385C15.0131 48.3259 14.9393 48.28 14.8586 48.2499C14.7779 48.2198 14.692 48.2062 14.606 48.2099ZM21.5158 49.4047C21.4948 49.4046 21.4738 49.4054 21.4529 49.4073C21.3685 49.4136 21.2861 49.4366 21.2106 49.4748C21.135 49.513 21.0678 49.5658 21.0126 49.63C20.9575 49.6943 20.9156 49.7688 20.8893 49.8492C20.8629 49.9297 20.8527 50.0146 20.8593 50.099C20.9876 52.1896 21.0286 52.8497 21.063 53.4092C21.0631 53.4104 21.0629 53.4123 21.063 53.4143V53.4168C21.0632 53.4203 21.065 53.4452 21.0655 53.452C21.0657 53.4542 21.0654 53.4547 21.0655 53.457C21.0704 53.5379 21.0827 53.71 21.0932 53.8821C21.0955 53.919 21.109 54.1554 21.1108 54.184C21.1148 54.248 21.1167 54.2648 21.1183 54.2921C21.1185 54.2952 21.1182 54.3044 21.1183 54.3072C21.1196 54.3274 21.1203 54.3404 21.1209 54.3475C21.121 54.3493 21.1208 54.3519 21.1209 54.3525V54.355C21.1214 54.3624 21.1232 54.3726 21.1234 54.3726C21.1579 54.9352 21.1969 55.5857 21.3246 57.6653C21.3287 57.7505 21.3498 57.8341 21.3865 57.9111C21.4232 57.9881 21.4749 58.0571 21.5385 58.114C21.602 58.1709 21.6763 58.2146 21.7569 58.2425C21.8376 58.2705 21.9229 58.2821 22.0081 58.2768C22.0933 58.2714 22.1765 58.2492 22.253 58.2114C22.3295 58.1737 22.3978 58.121 22.4538 58.0567C22.5098 57.9923 22.5524 57.9174 22.5792 57.8364C22.606 57.7554 22.6165 57.6699 22.61 57.5848C22.4632 55.194 22.4069 54.2632 22.3786 53.8016C22.3711 53.6797 22.3664 53.5917 22.3609 53.5023C22.3566 53.4305 22.3551 53.4053 22.3534 53.3791C22.3522 53.3589 22.3514 53.3433 22.3509 53.3363C22.3506 53.3319 22.3485 53.3112 22.3484 53.3111C22.3138 52.7486 22.2723 52.0981 22.1446 50.0185C22.137 49.8556 22.0679 49.7016 21.9511 49.5877C21.8344 49.4738 21.6788 49.4084 21.5158 49.4047ZM11.0165 61.8182H44.4964L42.6551 82.4242H13.2251L11.0165 61.8182Z" fill="black"/>
</svg>
