<svg width="48" height="49" viewBox="0 0 48 49" fill="none" xmlns="http://www.w3.org/2000/svg">
<g clip-path="url(#clip0_107_2029)">
<rect x="41.2998" y="0.5" width="6.20001" height="6.20001" stroke="black"/>
<rect x="41.2998" y="10.1001" width="6.20001" height="6.20001" stroke="black"/>
<rect x="20.9" y="0.5" width="6.20001" height="6.20001" stroke="black"/>
<rect x="30.5" y="0.5" width="6.20001" height="6.20001" stroke="black"/>
<rect x="20.9" y="10.1001" width="6.20001" height="6.20001" stroke="black"/>
<rect x="0.5" y="20.9" width="6.20001" height="6.20001" stroke="black"/>
<rect x="10.1001" y="20.9" width="6.20001" height="6.20001" stroke="black"/>
<rect x="20.9" y="20.9" width="6.20001" height="6.20001" stroke="black"/>
<rect x="30.5" y="20.9" width="6.20001" height="6.20001" stroke="black"/>
<rect x="41.2998" y="20.9" width="6.20001" height="6.20001" stroke="black"/>
<rect x="30.5" y="10.1001" width="6.20001" height="6.20001" stroke="black"/>
<rect x="0.5" y="0.5" width="17" height="17" stroke="black"/>
<rect x="30.5" y="30.5001" width="17" height="17" stroke="black"/>
<rect x="20.9" y="41.2998" width="6.20001" height="6.20001" stroke="black"/>
<rect x="20.9" y="31.7003" width="6.20001" height="6.20001" stroke="black"/>
<rect x="0.5" y="30.5001" width="17" height="17" stroke="black"/>
</g>
<defs>
<clipPath id="clip0_107_2029">
<rect width="48" height="48" fill="white" transform="translate(0 0.5)"/>
</clipPath>
</defs>
</svg>
