<svg width="64" height="64" viewBox="0 0 64 64" fill="none" xmlns="http://www.w3.org/2000/svg">
<mask id="path-1-inside-1_107_1782" fill="white">
<path fill-rule="evenodd" clip-rule="evenodd" d="M26.1811 53.0349C24.4372 52.5536 22.7809 51.8614 21.2413 50.9873L14.1937 58.0348C13.8032 58.4254 13.17 58.4254 12.7795 58.0348L5.96553 51.2209C5.575 50.8303 5.575 50.1972 5.96553 49.8067L13.0127 42.7595C12.138 41.2192 11.4453 39.5621 10.9639 37.8173H1C0.447716 37.8173 -4.65516e-08 37.3696 0 36.8173L8.12288e-07 27.1809C8.58839e-07 26.6286 0.447717 26.1809 1 26.1809L10.9647 26.1809C11.4461 24.4371 12.1386 22.7809 13.0129 21.2414L5.96565 14.1942C5.57513 13.8037 5.57513 13.1705 5.96565 12.78L12.7796 5.96604C13.1702 5.57551 13.8033 5.57551 14.1938 5.96604L21.2416 13.0138C22.7811 12.1398 24.4373 11.4475 26.181 10.9664L26.181 1C26.181 0.447716 26.6288 -4.65516e-08 27.181 0L36.8175 8.12295e-07C37.3697 8.58847e-07 37.8175 0.447717 37.8175 1V10.9669C39.5612 11.4483 41.2174 12.1407 42.7568 13.015L49.806 5.96578C50.1966 5.57525 50.8297 5.57525 51.2202 5.96578L58.0342 12.7797C58.4247 13.1703 58.4247 13.8034 58.0342 14.194L50.9847 21.2435C51.8585 22.7824 52.5505 24.4379 53.0317 26.1809L63 26.1809C63.5523 26.1809 64 26.6286 64 27.1809V36.8173C64 37.3696 63.5523 37.8173 63 37.8173H53.0325C52.5514 39.5612 51.8591 41.2176 50.9851 42.7571L58.0343 49.8064C58.4249 50.1969 58.4249 50.8301 58.0343 51.2206L51.2204 58.0346C50.8298 58.4251 50.1967 58.4251 49.8062 58.0346L42.7575 50.9859C41.2179 51.8603 39.5615 52.5528 37.8175 53.0343V63.0001C37.8175 63.5524 37.3697 64.0001 36.8175 64.0001H27.181C26.6288 64.0001 26.181 63.5524 26.181 63.0001L26.1811 53.0349ZM43.6345 32.7267C43.6345 38.7516 38.7503 43.6358 32.7254 43.6358C26.7004 43.6358 21.8162 38.7516 21.8162 32.7267C21.8162 26.7017 26.7004 21.8175 32.7254 21.8175C38.7503 21.8175 43.6345 26.7017 43.6345 32.7267Z"/>
</mask>
<path d="M21.2413 50.9873L22.2288 49.248L20.9042 48.496L19.8271 49.573L21.2413 50.9873ZM26.1811 53.0349L28.1811 53.0349L28.1811 51.512L26.7131 51.1069L26.1811 53.0349ZM14.1937 58.0348L15.6079 59.4491L15.6079 59.4491L14.1937 58.0348ZM12.7795 58.0348L11.3653 59.4491L11.3653 59.4491L12.7795 58.0348ZM5.96553 51.2209L7.37974 49.8067L7.37974 49.8066L5.96553 51.2209ZM5.96553 49.8067L7.37974 51.2209L7.37974 51.2209L5.96553 49.8067ZM13.0127 42.7595L14.4269 44.1737L15.5041 43.0965L14.7518 41.7718L13.0127 42.7595ZM10.9639 37.8173L12.8918 37.2854L12.4868 35.8173H10.9639V37.8173ZM0 36.8173L-2 36.8173L0 36.8173ZM8.12288e-07 27.1809L2 27.1809L8.12288e-07 27.1809ZM1 26.1809L1 24.1809H1V26.1809ZM10.9647 26.1809L10.9647 28.1809L12.4873 28.1809L12.8926 26.7132L10.9647 26.1809ZM13.0129 21.2414L14.752 22.2291L15.5043 20.9044L14.4271 19.8272L13.0129 21.2414ZM5.96565 14.1942L7.37987 12.78L7.37987 12.78L5.96565 14.1942ZM5.96565 12.78L4.55144 11.3658L4.55144 11.3658L5.96565 12.78ZM12.7796 5.96604L14.1938 7.38025L14.1938 7.38025L12.7796 5.96604ZM14.1938 5.96604L15.6081 4.55182L15.6081 4.55182L14.1938 5.96604ZM21.2416 13.0138L19.8274 14.428L20.9045 15.5051L22.2291 14.753L21.2416 13.0138ZM26.181 10.9664L26.7131 12.8943L28.181 12.4892L28.181 10.9664L26.181 10.9664ZM26.181 1L28.181 1V1H26.181ZM27.181 0L27.181 -2L27.181 0ZM36.8175 8.12295e-07L36.8175 2L36.8175 8.12295e-07ZM37.8175 10.9669H35.8175V12.4896L37.2853 12.8948L37.8175 10.9669ZM42.7568 13.015L41.7692 14.7541L43.0939 15.5064L44.1711 14.4292L42.7568 13.015ZM49.806 5.96578L48.3918 4.55156L48.3918 4.55156L49.806 5.96578ZM58.0342 12.7797L59.4484 11.3655L59.4484 11.3655L58.0342 12.7797ZM58.0342 14.194L59.4484 15.6082L59.4484 15.6082L58.0342 14.194ZM50.9847 21.2435L49.5705 19.8293L48.4934 20.9064L49.2455 22.231L50.9847 21.2435ZM53.0317 26.1809L51.1038 26.7132L51.5091 28.1809L53.0317 28.1809L53.0317 26.1809ZM63 26.1809L63 28.1809H63V26.1809ZM53.0325 37.8173V35.8173H51.5097L51.1046 37.2854L53.0325 37.8173ZM50.9851 42.7571L49.2458 41.7697L48.4938 43.0943L49.5708 44.1713L50.9851 42.7571ZM58.0343 49.8064L56.6201 51.2206L56.6201 51.2206L58.0343 49.8064ZM58.0343 51.2206L56.6201 49.8064L56.6201 49.8064L58.0343 51.2206ZM51.2204 58.0346L52.6346 59.4488L52.6346 59.4488L51.2204 58.0346ZM49.8062 58.0346L48.3919 59.4488L48.3919 59.4488L49.8062 58.0346ZM42.7575 50.9859L44.1717 49.5717L43.0945 48.4945L41.7698 49.2468L42.7575 50.9859ZM37.8175 53.0343L37.2853 51.1064L35.8175 51.5116V53.0343H37.8175ZM26.181 63.0001L24.181 63.0001V63.0001H26.181ZM20.2538 52.7265C21.9348 53.6809 23.7439 54.4371 25.649 54.9628L26.7131 51.1069C25.1305 50.6702 23.6269 50.0419 22.2288 49.248L20.2538 52.7265ZM19.8271 49.573L12.7795 56.6206L15.6079 59.4491L22.6555 52.4015L19.8271 49.573ZM12.7795 56.6206C13.17 56.2301 13.8032 56.2301 14.1937 56.6206L11.3653 59.4491C12.5369 60.6206 14.4363 60.6206 15.6079 59.4491L12.7795 56.6206ZM14.1937 56.6206L7.37974 49.8067L4.55131 52.6351L11.3653 59.4491L14.1937 56.6206ZM7.37974 49.8066C7.77027 50.1972 7.77027 50.8303 7.37974 51.2209L4.55132 48.3924C3.37974 49.564 3.37974 51.4635 4.55132 52.6351L7.37974 49.8066ZM7.37974 51.2209L14.4269 44.1737L11.5985 41.3453L4.55132 48.3924L7.37974 51.2209ZM9.03591 38.3493C9.56186 40.2555 10.3185 42.0654 11.2736 43.7471L14.7518 41.7718C13.9574 40.373 13.3287 38.8688 12.8918 37.2854L9.03591 38.3493ZM10.9639 35.8173H1V39.8173H10.9639V35.8173ZM1 35.8173C1.55229 35.8173 2 36.2651 2 36.8173L-2 36.8173C-2 38.4742 -0.656854 39.8173 1 39.8173V35.8173ZM2 36.8173L2 27.1809L-2 27.1809L-2 36.8173L2 36.8173ZM2 27.1809C2 27.7332 1.55229 28.1809 1 28.1809V24.1809C-0.656853 24.1809 -2 25.5241 -2 27.1809L2 27.1809ZM1 28.1809L10.9647 28.1809L10.9647 24.1809L1 24.1809L1 28.1809ZM11.2738 20.2537C10.3192 21.9346 9.56275 23.7436 9.0368 25.6487L12.8926 26.7132C13.3295 25.1306 13.958 23.6272 14.752 22.2291L11.2738 20.2537ZM4.55144 15.6084L11.5987 22.6556L14.4271 19.8272L7.37987 12.78L4.55144 15.6084ZM4.55144 11.3658C3.37987 12.5374 3.37987 14.4369 4.55144 15.6084L7.37987 12.78C7.77039 13.1705 7.77039 13.8037 7.37987 14.1942L4.55144 11.3658ZM11.3654 4.55182L4.55144 11.3658L7.37987 14.1942L14.1938 7.38025L11.3654 4.55182ZM15.6081 4.55182C14.4365 3.38025 12.537 3.38025 11.3654 4.55182L14.1938 7.38025C13.8033 7.77077 13.1702 7.77077 12.7796 7.38025L15.6081 4.55182ZM22.6558 11.5996L15.6081 4.55182L12.7796 7.38025L19.8274 14.428L22.6558 11.5996ZM25.649 9.03842C23.744 9.56411 21.935 10.3202 20.2541 11.2746L22.2291 14.753C23.6271 13.9593 25.1306 13.331 26.7131 12.8943L25.649 9.03842ZM24.181 1L24.181 10.9664L28.181 10.9664L28.181 1L24.181 1ZM27.181 -2C25.5242 -2 24.181 -0.656854 24.181 1H28.181C28.181 1.55229 27.7333 2 27.181 2L27.181 -2ZM36.8175 -2L27.181 -2L27.181 2L36.8175 2L36.8175 -2ZM39.8175 1C39.8175 -0.656853 38.4743 -2 36.8175 -2L36.8175 2C36.2652 2 35.8175 1.55229 35.8175 1H39.8175ZM39.8175 10.9669V1H35.8175V10.9669H39.8175ZM43.7445 11.2758C42.0637 10.3213 40.2547 9.56495 38.3497 9.03906L37.2853 12.8948C38.8677 13.3317 40.3712 13.9601 41.7692 14.7541L43.7445 11.2758ZM48.3918 4.55156L41.3426 11.6007L44.1711 14.4292L51.2202 7.37999L48.3918 4.55156ZM52.6345 4.55156C51.4629 3.37999 49.5634 3.37999 48.3918 4.55156L51.2202 7.37999C50.8297 7.77051 50.1966 7.77051 49.806 7.37999L52.6345 4.55156ZM59.4484 11.3655L52.6345 4.55156L49.806 7.37999L56.62 14.194L59.4484 11.3655ZM59.4484 15.6082C60.62 14.4366 60.62 12.5371 59.4484 11.3655L56.62 14.194C56.2295 13.8034 56.2295 13.1703 56.62 12.7798L59.4484 15.6082ZM52.3989 22.6577L59.4484 15.6082L56.62 12.7797L49.5705 19.8293L52.3989 22.6577ZM54.9596 25.6487C54.4339 23.7444 53.6779 21.9362 52.7239 20.256L49.2455 22.231C50.039 23.6285 50.6671 25.1313 51.1038 26.7132L54.9596 25.6487ZM63 24.1809L53.0317 24.1809L53.0317 28.1809L63 28.1809L63 24.1809ZM66 27.1809C66 25.5241 64.6568 24.1809 63 24.1809V28.1809C62.4477 28.1809 62 27.7332 62 27.1809H66ZM66 36.8173V27.1809H62V36.8173H66ZM63 39.8173C64.6568 39.8173 66 38.4742 66 36.8173H62C62 36.265 62.4477 35.8173 63 35.8173V39.8173ZM53.0325 39.8173H63V35.8173H53.0325V39.8173ZM52.7243 43.7446C53.6787 42.0636 54.4348 40.2545 54.9605 38.3493L51.1046 37.2854C50.6679 38.868 50.0396 40.3715 49.2458 41.7697L52.7243 43.7446ZM59.4486 48.3922L52.3993 41.3429L49.5708 44.1713L56.6201 51.2206L59.4486 48.3922ZM59.4485 52.6348C60.6201 51.4633 60.6201 49.5638 59.4485 48.3922L56.6201 51.2206C56.2296 50.8301 56.2296 50.1969 56.6201 49.8064L59.4485 52.6348ZM52.6346 59.4488L59.4486 52.6348L56.6201 49.8064L49.8062 56.6204L52.6346 59.4488ZM48.3919 59.4488C49.5635 60.6204 51.463 60.6204 52.6346 59.4488L49.8062 56.6204C50.1967 56.2299 50.8298 56.2299 51.2204 56.6204L48.3919 59.4488ZM41.3433 52.4001L48.3919 59.4488L51.2204 56.6204L44.1717 49.5717L41.3433 52.4001ZM38.3497 54.9622C40.255 54.4362 42.0642 53.6797 43.7452 52.725L41.7698 49.2468C40.3716 50.0409 38.8679 50.6695 37.2853 51.1064L38.3497 54.9622ZM35.8175 53.0343V63.0001H39.8175V53.0343H35.8175ZM35.8175 63.0001C35.8175 62.4479 36.2652 62.0001 36.8175 62.0001V66.0001C38.4743 66.0001 39.8175 64.657 39.8175 63.0001H35.8175ZM36.8175 62.0001H27.181V66.0001H36.8175V62.0001ZM27.181 62.0001C27.7333 62.0001 28.181 62.4479 28.181 63.0001H24.181C24.181 64.657 25.5242 66.0001 27.181 66.0001V62.0001ZM28.181 63.0001L28.1811 53.0349L24.1811 53.0349L24.181 63.0001L28.181 63.0001ZM32.7254 45.6358C39.8549 45.6358 45.6345 39.8562 45.6345 32.7267H41.6345C41.6345 37.6471 37.6457 41.6358 32.7254 41.6358V45.6358ZM19.8162 32.7267C19.8162 39.8562 25.5958 45.6358 32.7254 45.6358V41.6358C27.805 41.6358 23.8162 37.6471 23.8162 32.7267H19.8162ZM32.7254 19.8175C25.5958 19.8175 19.8162 25.5971 19.8162 32.7267H23.8162C23.8162 27.8063 27.805 23.8175 32.7254 23.8175V19.8175ZM45.6345 32.7267C45.6345 25.5972 39.8549 19.8175 32.7254 19.8175V23.8175C37.6457 23.8175 41.6345 27.8063 41.6345 32.7267H45.6345Z" fill="black" mask="url(#path-1-inside-1_107_1782)"/>
</svg>
