<svg width="75" height="63" viewBox="0 0 75 63" fill="none" xmlns="http://www.w3.org/2000/svg">
<path d="M8.03572 33.8333C7.32531 33.8333 6.64401 34.0894 6.14168 34.5454C5.63935 35.0014 5.35714 35.6198 5.35714 36.2646V41.1274C5.35591 41.7477 5.61595 42.345 6.08403 42.797C6.55211 43.249 7.19282 43.5215 7.875 43.5588H66.9643C67.6747 43.5588 68.356 43.3026 68.8583 42.8466C69.3607 42.3907 69.6429 41.7722 69.6429 41.1274V36.2646C69.6429 35.6198 69.3607 35.0014 68.8583 34.5454C68.356 34.0894 67.6747 33.8333 66.9643 33.8333H8.03572ZM69.6429 29.3839C71.2102 29.8869 72.5672 30.8188 73.5266 32.0511C74.4861 33.2835 75.0009 34.7556 75 36.2646V41.1274C75.0001 42.4661 74.5943 43.7791 73.827 44.9224C73.0597 46.0658 71.9606 46.9954 70.65 47.6094L66.2411 58.2686C65.6666 59.6582 64.6388 60.8556 63.2948 61.701C61.9509 62.5465 60.3548 62.9996 58.7196 63H16.2804C14.6452 62.9996 13.0491 62.5465 11.7052 61.701C10.3612 60.8556 9.33341 59.6582 8.75893 58.2686L4.35536 47.6143C3.04296 47.0005 1.94221 46.0704 1.17391 44.9261C0.405599 43.7818 -0.000561533 42.4675 1.10484e-06 41.1274V36.2646C-0.000870429 34.7556 0.513899 33.2835 1.47337 32.0511C2.43283 30.8188 3.78976 29.8869 5.35714 29.3839V28.9705C5.41753 21.2324 8.86191 13.8331 14.9326 8.40018C21.0032 2.96729 29.2029 -0.0540784 37.7277 0.000732942C46.2525 0.0555443 54.4042 3.18205 60.3894 8.69245C66.3747 14.2029 69.7032 21.6458 69.6429 29.3839ZM64.2857 28.9705C64.2857 22.5221 61.4637 16.3378 56.4404 11.7781C51.4171 7.21842 44.604 4.65681 37.5 4.65681C30.396 4.65681 23.5829 7.21842 18.5596 11.7781C13.5363 16.3378 10.7143 22.5221 10.7143 28.9705H64.2857ZM37.5 48.4215H10.4089L13.7732 56.5617C13.965 57.0246 14.3077 57.4234 14.7557 57.7049C15.2036 57.9864 15.7355 58.1373 16.2804 58.1373H58.7196C59.2645 58.1373 59.7964 57.9864 60.2443 57.7049C60.6923 57.4234 61.035 57.0246 61.2268 56.5617L64.5911 48.4215H37.5Z" fill="black"/>
</svg>
