<svg width="80" height="85" viewBox="0 0 80 85" fill="none" xmlns="http://www.w3.org/2000/svg">
<path fill-rule="evenodd" clip-rule="evenodd" d="M1.04726 50.9336L1.01268 50.9198C1.03343 50.899 1.05418 50.8783 1.06801 50.8644C1.16485 50.5809 1.3516 50.3457 1.58677 50.1797L40.5142 16.3637C40.6802 15.9556 40.8808 15.5475 41.1091 15.1533C42.6238 12.5249 45.1623 10.8511 47.929 10.3392C46.2689 7.42036 43.9657 4.96491 41.282 3.53315L41.1713 3.47781C40.2721 3.00747 39.9194 1.89388 40.3966 0.987783C40.867 0.0886057 41.9806 -0.264148 42.8867 0.213107L43.0042 0.275358L43.0112 0.268441C43.8066 0.676529 44.5743 1.1607 45.3075 1.70712C48.1849 3.86515 50.5504 6.97769 52.1482 10.4706C53.0266 10.692 53.8843 11.0378 54.7074 11.5082C56.4919 12.5387 57.8337 14.0328 58.6707 15.755V15.762L58.7122 15.8588C59.3554 17.2698 59.6667 18.8122 59.6113 20.3685C65.4629 23.3565 70.2355 27.804 73.9221 33.5172C74.0604 33.6556 74.178 33.8285 74.2472 34.0291L74.2541 34.0429L74.2956 34.1052H74.2818C77.6641 41.5476 79.1442 48.7341 79.082 55.6992C79.0266 62.7267 77.4012 69.512 74.593 76.1175C74.3924 76.5878 73.9567 76.8922 73.4794 76.9406L2.04328 84.9917C1.28935 85.0747 0.611509 84.5282 0.528508 83.7743C0.528508 83.7259 0.521591 83.6775 0.521591 83.6291C0.521591 64.8847 0.742927 60.1536 0.99193 51.2656C0.99193 51.1619 1.01268 51.0443 1.04726 50.9336ZM43.5852 16.1216L43.5783 16.1285L43.5714 16.1424L43.5645 16.1493L43.5576 16.1562L43.5507 16.17L43.5437 16.177L43.5368 16.1908L43.5299 16.1977L43.523 16.2115L43.5161 16.2254L43.5092 16.2323L43.5022 16.2461L43.4953 16.253L43.4884 16.26L43.4815 16.2738L43.4746 16.2876L43.4677 16.2945L43.4607 16.3084L43.4538 16.3222L43.4469 16.336L43.44 16.343L43.4331 16.3568V16.3637L43.4262 16.3706L43.4192 16.3845L43.4123 16.3983L43.4054 16.4121L43.3985 16.419L43.3916 16.4329L43.3847 16.4467L43.3777 16.4605L43.3501 16.502L43.3362 16.5297L43.3293 16.5435L43.3086 16.585L43.3017 16.5989L43.2878 16.6265L43.2671 16.668L43.2463 16.7095L43.2325 16.7441L43.2256 16.751L43.2048 16.7925L43.1979 16.8133L43.1841 16.834L43.1633 16.8755V16.8825L43.1426 16.917L43.1218 16.9516V16.9585L43.1011 17L43.0872 17.0208L43.0803 17.0415L43.0596 17.0831L43.0527 17.0969L43.0388 17.1315L42.9904 17.2491L42.9835 17.2629L42.9627 17.3044L42.9558 17.3182L42.942 17.3459L42.9212 17.3874L42.9074 17.4289L42.8936 17.4566L42.8867 17.4704L42.8728 17.5119L42.8659 17.5326L42.8382 17.6018V17.6087L42.8244 17.6502L42.7967 17.7401L42.7898 17.7609L42.7829 17.7816L42.7691 17.8231V17.8301L42.7552 17.8646L42.7414 17.9061V17.9131L42.7137 17.9753L42.7068 18.003L42.6999 18.0237L42.6861 18.0652V18.0791L42.6792 18.1136L42.6653 18.1551L42.6515 18.1966L42.6446 18.2243L42.6307 18.2866V18.3004L42.6238 18.3281L42.61 18.3696L42.5962 18.4111L42.5892 18.4457V18.4595L42.5823 18.501L42.5754 18.5217L42.5685 18.5494L42.5616 18.5909V18.5978L42.5547 18.6393L42.5339 18.6808V18.6877L42.527 18.7292L42.5201 18.75L42.5132 18.7707L42.5062 18.8122V18.8192L42.4993 18.8537L42.4924 18.8952V18.9022L42.4855 18.9437V18.9713V18.9921L42.4786 19.0336V19.0474L42.4717 19.082L42.4647 19.1235L42.4578 19.1719V19.1996V19.2134L42.4509 19.2618C42.3748 19.9328 42.3886 20.6106 42.4993 21.2677C42.8659 23.322 44.0971 25.2033 46.0476 26.3307C49.5475 28.3504 54.0157 27.1538 56.0354 23.654C56.1945 23.3773 56.3328 23.0937 56.4573 22.8101L56.4781 22.7548L56.485 22.7409L56.4988 22.6994L56.5196 22.6441L56.5265 22.6372L56.5472 22.5888L56.568 22.5334L56.5887 22.4781L56.6095 22.4297V22.4228L56.6302 22.3674L56.6441 22.3259L56.651 22.3121L56.6717 22.2568L56.6856 22.2222L56.6925 22.1945L56.7132 22.1392L56.7201 22.1115L56.7271 22.0769L56.7478 22.0216L56.7547 22.0078L56.7686 21.9663L56.7824 21.9109V21.904L56.7962 21.8556L56.8101 21.8003L56.8239 21.7449L56.8377 21.6965V21.6896L56.8516 21.6343L56.8585 21.5928V21.5789L56.8723 21.5236L56.8792 21.489L56.8861 21.4614L56.9 21.406L56.9069 21.3853L56.9138 21.3507L56.9277 21.2954V21.2815L56.9346 21.24L56.9415 21.1847V21.1778L56.9484 21.1293L56.9553 21.074L56.9622 21.0187L56.9692 20.9703V20.9633L56.9761 20.908L56.983 20.8665V20.8458L56.9899 20.7904V20.7628V20.7351L56.9968 20.6798V20.659V20.6244L57.0037 20.5691V20.5553V20.5138V20.4584V20.41V20.3547V20.2993V20.244V20.1956V20.1818V20.1264V20.0849V20.0642V20.0088V19.9812V19.9535V19.8982V19.8774V19.7806V19.7667V19.7252V19.6699V19.663V19.6077L56.9968 19.5523L56.9899 19.497V19.4486V19.4347L56.983 19.3794L56.9761 19.3379V19.3172L56.9692 19.2618V19.2342V19.2065L56.9622 19.1512C56.8723 18.3972 56.6648 17.6641 56.3466 16.9724L56.3121 16.9032C55.6896 15.6375 54.7074 14.5308 53.3932 13.7768L53.3309 13.7423L53.2687 13.7077L53.2272 13.6869L53.1995 13.6731L53.1373 13.6385L53.075 13.6039L53.0612 13.597L53.0128 13.5693L52.9505 13.5417L52.8952 13.514L52.8883 13.5071L52.7569 13.4448L52.7223 13.431L52.6877 13.4172L52.6254 13.3895L52.5632 13.3618H52.5563L52.5009 13.3411L52.4387 13.3134L52.3903 13.2927L52.3695 13.2858L52.3003 13.2581L52.2381 13.2304L52.2173 13.2235L52.1758 13.2097L52.1067 13.1889L52.0444 13.1682L51.9753 13.1474L51.9061 13.1267L51.8646 13.1128L51.8369 13.1059L51.7678 13.0852L51.7055 13.0575L51.6917 13.0506L51.6363 13.0368L51.5672 13.016L51.5118 13.0022H51.498L51.4288 12.9883L51.3597 12.9745L51.332 12.9676L51.2974 12.9607L51.2282 12.9468L51.1591 12.933H51.1522L51.0899 12.9192L51.0208 12.9053L50.9723 12.8984H50.9516L50.8824 12.8846L50.8132 12.8708H50.7925L50.6749 12.8569L50.6127 12.85H50.6057L50.5366 12.8431L50.4674 12.8362H50.4259H50.3982L50.3291 12.8293L50.2599 12.8223H50.2461L50.1907 12.8154L50.0662 12.8085H50.0524H49.9832H49.9141H49.8864H49.8449H49.7757H49.7066H49.6443H49.5751H49.5267H49.506H49.4368H49.3676H49.3469H49.2985L49.2293 12.8154L49.2155 12.8016H49.2086L49.1394 12.8085C46.9468 12.9883 44.8648 14.1504 43.5852 16.1216ZM39.864 21.4337L6.83658 49.0384L69.9104 33.2613C66.7563 30.2525 62.9521 26.8979 58.7053 24.1866C58.5808 24.4563 58.4424 24.7191 58.2972 24.9751C55.5512 29.7269 49.4783 31.3592 44.7265 28.6133C42.0774 27.0847 40.4035 24.5255 39.9055 21.738L39.864 21.4337ZM53.6422 23.4119C53.9189 23.2251 53.988 22.8516 53.8082 22.5749C53.6284 22.2983 53.2479 22.2222 52.9782 22.4089C52.2934 22.8655 51.5879 23.2113 50.8686 23.4395C50.1492 23.6678 49.4091 23.7923 48.6414 23.813C48.3094 23.82 48.0466 24.0897 48.0535 24.4217C48.0604 24.7537 48.3301 25.0166 48.6621 25.0096C49.5406 24.9889 50.3982 24.8506 51.2282 24.5808C52.0583 24.318 52.8675 23.9237 53.6422 23.4119ZM3.89696 58.3276C4.38114 58.5697 4.86531 58.8325 5.34256 59.0885L5.3564 59.0954C11.7475 62.5607 14.9638 59.4481 18.2976 56.2318C22.0188 52.6351 25.8784 48.9001 34.1646 53.396C35.631 54.1914 37.0904 54.9799 38.7574 55.0076C40.4243 55.0352 42.3471 54.3159 44.7888 52.1025L44.9686 51.8881C52.0859 44.6325 56.1046 46.8112 60.1993 49.0246C66.5973 52.4968 69.8135 49.3843 73.1405 46.1611C73.6662 45.6492 74.1988 45.1374 74.7383 44.6463C74.0673 41.9003 73.1267 39.1129 71.8955 36.2839C31.9236 45.8083 43.6821 43.0139 4.00071 52.4622C3.97996 53.0225 3.94538 55.2842 3.89696 58.3276ZM75.423 48.0355C75.1464 48.2983 74.8766 48.5612 74.5999 48.8309C70.8787 52.4276 67.0192 56.1627 58.7329 51.6668C57.2666 50.8714 55.8071 50.0828 54.1402 50.0552C52.4733 50.0275 50.5504 50.7469 48.1157 52.9533L47.929 53.1746C40.8116 60.4234 36.793 58.2515 32.6983 56.0312L32.6845 56.0243C26.2934 52.566 23.0771 55.6716 19.7501 58.8879C16.0289 62.4915 12.1694 66.2196 3.87621 61.7237L3.84163 61.6961L3.69638 71.5248C4.49872 71.8775 5.2734 72.2994 6.04807 72.7214L6.0619 72.7283C12.4599 76.2005 15.6762 73.0879 19.0031 69.8647C22.7243 66.268 26.5839 62.533 34.8701 67.0289C36.3365 67.8243 37.7959 68.6128 39.4698 68.6405C41.1367 68.6682 43.0596 67.9488 45.5012 65.7354L45.6741 65.5349C52.7984 58.2723 56.817 60.451 60.9117 62.6713C67.3097 66.1366 70.526 63.031 73.8529 59.8078C74.5446 59.1369 75.2432 58.4659 75.9625 57.8504C76.004 57.1448 76.0248 56.4324 76.0317 55.72C76.0525 53.1885 75.8588 50.6293 75.423 48.0355ZM75.4922 62.3047L75.3262 62.4638C71.605 66.0605 67.7454 69.7956 59.4592 65.2997C57.9928 64.5043 56.5334 63.7158 54.8665 63.6881C53.1995 63.6604 51.2767 64.3798 48.8351 66.5931L48.6552 66.8075C41.5379 74.0632 37.5193 71.8844 33.4315 69.6711C27.0266 66.1989 23.8103 69.3114 20.4833 72.5277C16.7621 76.1244 12.9026 79.8594 4.60939 75.3636L4.59555 75.3566C4.2843 75.1837 3.96613 75.0177 3.64796 74.8517C3.60646 78.234 3.57188 80.9246 3.57188 81.8999L72.0961 74.1946C73.7008 70.2867 74.8559 66.3303 75.4922 62.3047Z" fill="black"/>
</svg>
