<svg width="51" height="85" viewBox="0 0 51 85" fill="none" xmlns="http://www.w3.org/2000/svg">
<path d="M44.676 28.8045V29.8045H45.676H48.9989C49.0943 29.8045 49.1903 29.844 49.2658 29.9188C49.3418 29.9941 49.3758 30.0837 49.3758 30.1631V37.9287C49.3758 38.1291 49.1993 38.3056 48.9989 38.3056H45.5475H44.6465L44.5529 39.2017L40.459 78.3972L40.458 78.4064L40.4572 78.4155C40.1912 81.5137 37.4662 84 34.2019 84H16.5777C13.6157 84 10.8299 81.5651 10.3322 78.4183L10.3072 78.26L6.44762 39.2073L6.35851 38.3056H5.45247H2.00107C1.80065 38.3056 1.62418 38.1291 1.62418 37.9287V30.1631C1.62418 29.9627 1.80065 29.7862 2.00107 29.7862H5.32396H6.32396V28.7862V25.5918C6.32396 17.0553 13.0963 10.3157 21.8847 10.1424L22.9776 10.1208L22.8591 9.0341L22.3083 3.9855L22.303 3.93634L22.2928 3.88794C22.1592 3.25331 21.7542 2.73039 21.3119 2.37914C20.8677 2.0264 20.2695 1.75378 19.6253 1.75378H9.11446V1H19.6253C21.2281 1 22.7824 2.29823 23.0459 3.82356L23.0481 3.83655L23.0507 3.84948L23.0604 3.89761L23.643 9.25075L23.7401 10.1425H24.6371H28.5659C32.8888 10.1425 36.9348 11.7384 39.9552 14.6207C43.0084 17.5359 44.676 21.4242 44.676 25.6102V28.8045ZM10.3261 78.5011V78.4932C10.3263 78.5025 10.3261 78.5059 10.3261 78.5011ZM42.9222 29.8045H43.9222V28.8045V25.6102C43.9222 17.3392 37.1132 10.9147 28.5475 10.9147H24.9125H23.7991L23.9183 12.0217L25.7357 28.9115L25.8318 29.8045H26.73H42.9222ZM23.153 11.8077L23.0567 10.9126L22.1564 10.9147C13.7401 10.9343 7.07774 17.3561 7.07774 25.6102V28.8045V29.8045H8.07774H23.9762H25.0896L24.9705 28.6975L23.153 11.8077ZM39.6964 78.3625L39.6998 78.3217V78.2972L40.1164 74.3845L40.2342 73.2786H39.122H11.676H10.5731L10.6808 74.3763L11.0663 78.305L11.0697 78.3398L11.0756 78.3743C11.5336 81.0786 13.8899 83.2646 16.5777 83.2646H34.2019C37.0371 83.2646 39.4675 81.1555 39.6964 78.3625ZM39.3974 72.5248H40.298L40.3919 71.6292L42.6684 49.9294L42.7842 48.8251H41.6739H9.25269H8.14881L8.25755 49.9236L10.4055 71.6234L10.4947 72.5248H11.4006H39.3974ZM41.9676 48.0896H42.8687L42.9622 47.1933L43.77 39.446L43.8851 38.3423H42.7754H8.22461H7.12014L7.22952 39.4414L8.00058 47.1887L8.09025 48.0896H8.99567H41.9676ZM47.622 37.5702H48.622V36.5702V31.5583V30.5583H47.622H44.2991H6.70085H3.37796H2.37796V31.5583V36.5702V37.5702H3.37796H47.622Z" stroke="black" stroke-width="2"/>
</svg>
