<svg width="51" height="85" viewBox="0 0 51 85" fill="none" xmlns="http://www.w3.org/2000/svg">
<path d="M44.9368 28.8045V29.8045H45.9368H49.2597C49.3551 29.8045 49.451 29.844 49.5266 29.9188C49.6026 29.9941 49.6366 30.0837 49.6366 30.1631V37.9287C49.6366 38.1291 49.4601 38.3056 49.2597 38.3056H45.8083H44.9073L44.8137 39.2017L40.7197 78.3972L40.7188 78.4064L40.718 78.4155C40.452 81.5137 37.727 84 34.4627 84H16.8385C13.8765 84 11.0907 81.5651 10.593 78.4183L10.5679 78.26L6.7084 39.2073L6.61929 38.3056H5.71324H2.26184C2.06142 38.3056 1.88495 38.1291 1.88495 37.9287V30.1631C1.88495 29.9627 2.06142 29.7862 2.26184 29.7862H5.58473H6.58473V28.7862V25.5918C6.58473 17.0553 13.3571 10.3157 22.1455 10.1424L23.2384 10.1208L23.1199 9.0341L22.5691 3.9855L22.5638 3.93634L22.5536 3.88794C22.42 3.25331 22.015 2.73039 21.5727 2.37914C21.1285 2.0264 20.5302 1.75378 19.886 1.75378H9.37523V1H19.886C21.4889 1 23.0432 2.29823 23.3067 3.82356L23.3089 3.83655L23.3115 3.84948L23.3211 3.89761L23.9038 9.25075L24.0008 10.1425H24.8979H28.8266C33.1495 10.1425 37.1956 11.7384 40.216 14.6207C43.2692 17.5359 44.9368 21.4242 44.9368 25.6102V28.8045ZM10.5869 78.5011V78.4932C10.5871 78.5025 10.5869 78.5059 10.5869 78.5011ZM43.183 29.8045H44.183V28.8045V25.6102C44.183 17.3392 37.374 10.9147 28.8083 10.9147H25.1733H24.0599L24.179 12.0217L25.9965 28.9115L26.0926 29.8045H26.9908H43.183ZM23.4138 11.8077L23.3174 10.9126L22.4172 10.9147C14.0009 10.9343 7.33851 17.3561 7.33851 25.6102V28.8045V29.8045H8.33851H24.237H25.3504L25.2313 28.6975L23.4138 11.8077ZM39.9572 78.3625L39.9605 78.3217V78.2972L40.3772 74.3845L40.4949 73.2786H39.3828H11.9368H10.8338L10.9416 74.3763L11.3271 78.305L11.3305 78.3398L11.3364 78.3743C11.7943 81.0786 14.1507 83.2646 16.8385 83.2646H34.4627C37.2979 83.2646 39.7283 81.1555 39.9572 78.3625ZM39.6582 72.5248H40.5588L40.6527 71.6292L42.9292 49.9294L43.045 48.8251H41.9346H9.51346H8.40959L8.51832 49.9236L10.6663 71.6234L10.7555 72.5248H11.6614H39.6582ZM42.2284 48.0896H43.1295L43.223 47.1933L44.0307 39.446L44.1458 38.3423H43.0361H8.48538H7.38091L7.4903 39.4414L8.26136 47.1887L8.35103 48.0896H9.25644H42.2284ZM47.8828 37.5702H48.8828V36.5702V31.5583V30.5583H47.8828H44.5599H6.96162H3.63873H2.63873V31.5583V36.5702V37.5702H3.63873H47.8828Z" stroke="black" stroke-width="2"/>
<path d="M25.8579 66.423L25.0641 68.446L27.117 67.7329C29.4065 66.9376 30.7813 64.3224 30.7813 61.4643C30.7813 59.7478 30.289 58.1657 29.4238 56.9873C28.5556 55.8049 27.2744 54.9935 25.7607 54.9935C25.4684 54.9935 25.1999 55.0389 25.0072 55.0715C24.9887 55.0747 24.9709 55.0777 24.9538 55.0805L23.4087 55.338L24.2926 56.6312C24.7796 57.3436 25.3874 58.279 25.8929 59.2486C26.4096 60.2396 26.7679 61.1711 26.8402 61.8943L26.8402 61.8943L26.8414 61.9052C26.9053 62.4807 26.8153 63.2359 26.6149 64.0723C26.4181 64.894 26.1321 65.7243 25.8579 66.423ZM23.6774 57.0878L22.8669 55.9384L22.0474 57.0814C21.2118 58.2469 20.7402 59.7979 20.7402 61.4827C20.7402 63.9101 21.7383 66.1208 23.4226 67.2514L24.4381 67.933L24.9044 66.8024C25.2175 66.0433 25.5398 65.1604 25.7713 64.3342C25.9893 63.5563 26.1716 62.6803 26.0941 61.9994C26.0162 61.2421 25.6259 60.3448 25.2013 59.5419C24.7564 58.7007 24.1996 57.8285 23.6774 57.0878ZM31.535 61.4827C31.535 65.7291 28.8355 68.7073 25.7607 68.7073C22.686 68.7073 19.9865 65.7291 19.9865 61.4827C19.9865 57.2362 22.686 54.2581 25.7607 54.2581C28.8368 54.2581 31.535 57.2194 31.535 61.4827Z" stroke="black" stroke-width="2"/>
</svg>
