<svg width="86" height="84" viewBox="0 0 86 84" fill="none" xmlns="http://www.w3.org/2000/svg">
<path d="M17.3019 17.4876L17.8607 17.4068L18.0802 16.8866C22.0166 7.5542 32.1448 1 42.9658 1C50.808 1 57.7558 4.40531 62.4599 9.74045L63.0049 10.3585L63.7157 9.94175C65.8239 8.70574 68.3164 7.98761 70.9915 7.98761C78.6567 7.98761 84.774 13.849 84.774 20.9628C84.774 25.0099 82.8056 28.6341 79.6959 31.0219L79.0434 31.523L79.4093 32.2598C80.483 34.422 81.0779 36.8508 81.0779 39.3635C81.0779 46.2789 76.5805 52.5207 70.0637 54.355L69.5139 54.5098L69.3679 55.062L62.0192 82.8513H20.832L13.208 54.0208L13.0862 53.5604L12.6519 53.3647C6.13548 50.4289 1.77399 43.6249 1.77399 36.1026C1.77399 26.8973 8.29397 18.7899 17.3019 17.4876ZM75.2085 27.024L75.8412 27.5302L76.4675 27.0163C78.2438 25.5589 79.3827 23.3912 79.3827 20.9628C79.3827 16.4992 75.572 12.9752 70.9915 12.9752C69.4079 12.9752 67.9222 13.3918 66.6517 14.1239L65.8439 14.5893L66.2517 15.4277C67.4438 17.8789 68.2452 20.542 68.581 23.3355L68.6651 24.0351L69.3522 24.1913C71.5449 24.6895 73.5251 25.6772 75.2085 27.024ZM37.7303 54.9009H36.7303V55.9009V76.8637V77.8637H37.7303H45.1216H46.1216V76.8637V55.9009V54.9009H45.1216H37.7303ZM51.5128 76.8637V77.8637H52.5128H57.0185H57.7885L57.9853 77.1193L63.5288 56.1565L63.8608 54.9009H62.562H52.5128H51.5128V55.9009V76.8637ZM31.339 55.9009V54.9009H30.339H20.2895H18.9907L19.3228 56.1565L24.8662 77.1193L25.063 77.8637H25.833H30.339H31.339V76.8637V55.9009ZM42.9658 5.98761C33.7166 5.98761 24.981 12.1119 22.4649 20.4666L21.9152 22.292H19.8681C13.1912 22.292 7.16525 28.1374 7.16525 36.1026C7.16525 44.068 13.1912 49.9133 19.8681 49.9133H66.0635C71.0361 49.9133 75.6866 45.5313 75.6866 39.3635C75.6866 33.1958 71.0361 28.8138 66.0635 28.8138H63.3678V26.32C63.3678 14.9297 54.0671 5.98761 42.9658 5.98761Z" stroke="black" stroke-width="3"/>
</svg>
