<svg width="85" height="84" viewBox="0 0 85 84" fill="none" xmlns="http://www.w3.org/2000/svg">
<path d="M42.5215 83.0118C65.1717 83.0118 83.5333 64.6502 83.5333 42C83.5333 19.3499 65.1717 0.988281 42.5215 0.988281C19.8714 0.988281 1.50978 19.3499 1.50978 42C1.50978 64.6502 19.8714 83.0118 42.5215 83.0118Z" stroke="black" stroke-width="2" stroke-miterlimit="10"/>
<path d="M42.5212 63.2127C54.2368 63.2127 63.7342 53.7153 63.7342 41.9997C63.7342 30.2841 54.2368 20.7867 42.5212 20.7867C30.8056 20.7867 21.3082 30.2841 21.3082 41.9997C21.3082 53.7153 30.8056 63.2127 42.5212 63.2127Z" stroke="black" stroke-width="2" stroke-miterlimit="10"/>
<path d="M21.3086 49.071C20.5584 49.071 19.839 49.369 19.3086 49.8994C18.7782 50.4298 18.4802 51.1492 18.4802 51.8994V53.3136C18.4802 54.0637 18.1822 54.7831 17.6517 55.3136C17.1213 55.844 16.4019 56.142 15.6518 56.142C14.9016 56.142 14.1822 55.844 13.6518 55.3136C13.1214 54.7831 12.8234 54.0637 12.8234 53.3136V33.5148C12.8234 32.7647 12.5254 32.0452 11.995 31.5148C11.4645 30.9844 10.7451 30.6864 9.99497 30.6864C9.24483 30.6864 8.52542 30.9844 7.99499 31.5148C7.46457 32.0452 7.16657 32.7647 7.16657 33.5148V40.5858C7.16657 41.3359 6.86858 42.0553 6.33816 42.5858C5.80773 43.1162 5.08832 43.4142 4.33818 43.4142C3.58804 43.4142 2.86863 43.1162 2.3382 42.5858C1.80777 42.0553 1.50978 41.3359 1.50978 40.5858" stroke="black" stroke-width="2" stroke-miterlimit="10" stroke-linecap="round"/>
<path d="M63.7349 43.4144C64.485 43.4144 65.2044 43.7124 65.7348 44.2428C66.2653 44.7732 66.5633 45.4927 66.5633 46.2428V50.4854C66.5633 51.2355 66.8613 51.9549 67.3917 52.4854C67.9221 53.0158 68.6415 53.3138 69.3917 53.3138C70.1418 53.3138 70.8612 53.0158 71.3916 52.4854C71.9221 51.9549 72.2201 51.2355 72.2201 50.4854V37.7576C72.2201 37.0075 72.518 36.288 73.0485 35.7576C73.5789 35.2272 74.2983 34.9292 75.0485 34.9292C75.7986 34.9292 76.518 35.2272 77.0484 35.7576C77.5789 36.288 77.8769 37.0075 77.8769 37.7576V42.0002C77.8769 42.7503 78.1748 43.4697 78.7053 44.0002C79.2357 44.5306 79.9551 44.8286 80.7053 44.8286H82.1195" stroke="black" stroke-width="2" stroke-miterlimit="10" stroke-linecap="round"/>
<path d="M18.4802 23.6155L19.895 25.0303" stroke="black" stroke-width="2" stroke-miterlimit="10" stroke-linecap="round"/>
<path d="M22.7231 13.7168L24.1379 12.302" stroke="black" stroke-width="2" stroke-miterlimit="10" stroke-linecap="round"/>
<path d="M39.6936 13.7159L41.1083 15.1307" stroke="black" stroke-width="2" stroke-miterlimit="10" stroke-linecap="round"/>
<path d="M51.0064 9.47314H52.4212" stroke="black" stroke-width="2" stroke-miterlimit="10" stroke-linecap="round"/>
<path d="M60.9061 20.7876L62.3208 19.3728" stroke="black" stroke-width="2" stroke-miterlimit="10" stroke-linecap="round"/>
<path d="M70.8057 26.4436V27.8584" stroke="black" stroke-width="2" stroke-miterlimit="10" stroke-linecap="round"/>
</svg>
