<svg width="32" height="85" viewBox="0 0 32 85" fill="none" xmlns="http://www.w3.org/2000/svg">
<path d="M31.9035 30.3938C31.6912 26.6629 28.8256 23.2954 24.2564 21.3788V7.48238C24.2564 3.35659 20.541 0 15.9742 0C11.4074 0 7.69208 3.35659 7.69208 7.48238V21.379C3.12282 23.2954 0.2572 26.6631 0.0449703 30.394C0.0366881 30.4503 0.0310974 70.5964 0.0310974 70.5964C0.0310974 78.5386 7.18314 85 15.9742 85C24.7653 85 31.9173 78.5386 31.9173 70.5964C31.9173 70.5964 31.9117 30.4501 31.9035 30.3938ZM10.5908 7.48238C10.5908 5.25431 12.2584 3.37268 14.5248 2.79934V5.87367C14.5248 6.59684 15.1737 7.18308 15.9742 7.18308C16.7747 7.18308 17.4236 6.59684 17.4236 5.87367V2.79934C19.69 3.37268 21.3576 5.25413 21.3576 7.48238V28.1732C21.3576 30.3886 18.9425 32.1909 15.9742 32.1909C13.0059 32.1909 10.5908 30.3886 10.5908 28.1732V7.48238ZM7.69208 24.3338V28.1732C7.69208 31.8327 11.4074 34.8097 15.9742 34.8097C20.541 34.8097 24.2564 31.8327 24.2564 28.1732V24.3338C27.2383 25.9264 29.0186 28.3045 29.0186 30.8396C29.0186 35.4942 23.1668 39.2808 15.9742 39.2808C8.78159 39.2808 2.92985 35.4942 2.92985 30.8396C2.92985 28.3045 4.71009 25.9264 7.69208 24.3338ZM29.0186 70.5962C29.0186 77.0943 23.1668 82.381 15.9742 82.381C8.78159 82.381 2.92985 77.0943 2.92985 70.5962V37.187C5.81721 40.0341 10.5861 41.8996 15.9742 41.8996C21.3624 41.8996 26.1312 40.0341 29.0186 37.187V70.5962Z" fill="black"/>
<path d="M23.2882 46.5322C19.1107 50.3063 13.5519 52.3848 7.63559 52.3848C6.83512 52.3848 6.18622 52.971 6.18622 53.6942C6.18622 54.4173 6.83512 55.0036 7.63559 55.0036C14.3261 55.0036 20.6128 52.6528 25.3378 48.3841C25.9039 47.8727 25.9039 47.0436 25.3378 46.5322C24.7719 46.021 23.854 46.021 23.2882 46.5322Z" fill="black"/>
<path d="M23.2882 55.2716C19.1109 59.0457 13.5521 61.124 7.63559 61.124C6.83512 61.124 6.18622 61.7102 6.18622 62.4334C6.18622 63.1565 6.83512 63.7428 7.63559 63.7428C14.3263 63.7428 20.613 61.392 25.3378 57.1235C25.9039 56.6121 25.9039 55.783 25.3378 55.2716C24.7719 54.7604 23.854 54.7604 23.2882 55.2716Z" fill="black"/>
<path d="M23.2882 64.0104C19.1107 67.7845 13.5519 69.8629 7.63559 69.8629C6.83512 69.8629 6.18622 70.4491 6.18622 71.1723C6.18622 71.8955 6.83512 72.4817 7.63559 72.4817C14.3261 72.4817 20.6128 70.1309 25.3378 65.8622C25.9039 65.3508 25.9039 64.5218 25.3378 64.0104C24.7719 63.4993 23.854 63.4993 23.2882 64.0104Z" fill="black"/>
</svg>
