<svg width="93" height="54" viewBox="0 0 93 54" fill="none" xmlns="http://www.w3.org/2000/svg">
<path d="M91.8703 15.9824C89.5543 14.932 86.9315 14.3919 84.418 14.6251C85.2061 12.7842 85.4375 10.5321 83.886 9.26642C81.6464 7.44001 78.7757 8.2537 76.3163 9.34183C75.4122 7.78767 74.4313 6.15723 74.097 4.47636C73.8897 3.43251 72.3232 3.43514 71.7805 4.20148C70.8281 5.54652 69.5346 6.54741 68.2397 7.5746C66.6761 5.71487 64.305 3.50573 61.7267 4.53599C61.4537 4.64515 61.2126 4.7758 60.986 4.91609C57.9008 0.924372 53.6941 1.11157 49.8967 4.72713C45.6441 -0.871353 39.4442 -1.85208 34.9718 4.10678C29.5663 0.634144 23.5872 1.46844 24.8063 8.25896C21.6342 8.39311 19.0945 11.2152 17.556 13.5278C15.8083 11.8232 13.1614 9.94596 10.7483 10.6711C8.11731 11.4615 7.37223 13.8044 7.33792 16.0885C5.46506 15.9123 3.46319 15.918 1.78892 15.2805C1.17237 15.046 0.529238 15.6242 0.523923 16.1547C0.504595 18.0644 0.571759 20.0561 1.94016 21.5993C2.67607 22.4292 3.99084 22.6664 5.24908 22.8023C4.91277 23.1118 4.61609 23.4586 4.38851 23.8576C3.26701 25.8247 4.08893 28.0786 5.33412 29.8134C6.15313 30.9541 8.16998 29.9006 7.35387 28.7423C5.97773 26.7896 5.6279 23.7756 8.93971 23.4266C10.1757 23.2964 11.3016 23.7019 12.1302 24.531C13.3706 25.7717 13.1208 27.7107 12.9222 29.2325C10.4782 29.332 8.155 29.7283 6.07727 30.6148C5.98208 30.6551 5.95019 30.7235 5.9067 30.7866C5.66511 30.439 5.41385 30.1045 5.17853 29.7489C4.6359 28.9278 3.39748 29.5003 3.56225 30.3671C6.7779 47.2585 29.1865 53.9763 45.5238 54C64.0016 54.0271 83.7125 45.3931 90.1032 28.8541C90.7208 27.2561 88.7909 26.4131 87.4635 26.9953C87.0654 26.7357 86.5257 26.5967 85.8502 26.6818C85.0022 26.7888 84.158 26.9089 83.3129 27.0255C85.3916 23.3547 87.8694 20.381 91.8688 18.078C92.6656 17.6186 92.8091 16.4081 91.8703 15.9824ZM34.4403 6.41063C35.0022 6.87885 35.8807 6.79993 36.2856 6.19493C39.6897 1.1107 45.6624 2.33824 48.6988 7.08052C49.1941 7.85343 50.2426 7.70393 50.7693 7.08052C54.9692 4.58597 57.8757 4.40709 59.5243 6.47902C58.5449 8.35541 58.9551 10.9455 59.5011 12.8653C59.5847 13.1577 59.777 13.3156 59.9993 13.3857C59.462 13.814 58.9382 14.298 58.4569 14.8969C57.751 13.8005 57.0489 12.6821 56.6904 11.4874C56.4725 10.7601 55.2418 10.3247 54.6605 11.0008C52.9606 12.9784 50.893 14.3467 49.4604 16.3998C47.6513 14.9456 45.0913 13.1889 42.8483 14.0955C39.8907 15.2915 40.7044 18.4042 41.4698 20.6659C41.6896 21.3161 42.6865 21.0377 42.57 20.3906C41.5021 18.0684 42.5019 16.6558 45.5702 16.153C46.8482 16.8057 47.9895 17.6129 48.9936 18.5747C49.456 18.9667 50.3291 18.9518 50.6364 18.3827C51.6294 16.5462 53.4694 15.2595 55.0784 13.8311C55.7477 15.1214 56.6309 16.3375 57.3755 17.5778C57.7925 18.2731 59.0368 18.2998 59.446 17.5778C60.6332 15.4818 62.1601 13.5712 64.9921 13.4388C68.7601 13.2621 68.4035 17.7304 67.9411 19.89C60.0616 17.0653 47.5556 21.5976 50.7935 31.5837C50.4432 31.6121 50.0909 31.6262 49.7401 31.6516C47.429 27.5301 44.3395 22.089 40.1386 21.2122C40.8378 18.925 40.4618 16.2577 39.0968 14.3379C37.2998 11.8101 33.8836 12.0731 31.1396 12.9973C30.2104 10.7658 28.856 8.82188 26.2168 8.34401C26.296 4.17298 31.2981 3.79113 34.4403 6.41063ZM25.5369 30.4262C22.1295 29.8646 18.5939 29.3188 15.2106 29.2237C15.4841 27.5525 15.2338 25.7506 14.4496 24.2881C14.4626 24.2736 14.4665 24.2517 14.479 24.2368C17.5372 22.9255 20.6562 22.2398 24.026 22.9878C25.9965 23.4253 27.4166 24.4849 28.6777 25.7388C27.0962 26.6178 25.8998 27.9931 25.4925 29.8765C25.4485 30.0834 25.479 30.2623 25.5369 30.4262ZM14.7607 23.2837C15.8223 19.6006 20.4136 19.5033 23.9762 20.2736C27.2354 20.9781 29.7745 22.5546 31.9021 24.6831C31.488 24.7436 31.083 24.8317 30.6863 24.9387C26.9039 20.5875 20.0962 20.7668 14.7607 23.2837ZM27.6934 30.4276C28.138 29.0054 29.0029 28.0523 30.2988 27.4858C30.4718 27.6801 30.6448 27.8743 30.8192 28.0672C31.4754 28.7919 32.4964 27.8694 32.1407 27.1426C32.118 27.0965 32.089 27.0575 32.0659 27.0119C33.4 26.8287 34.7007 27.0667 36.0015 27.3078C37.1747 28.8098 38.2401 30.3837 39.3543 31.926C37.5694 31.8818 35.7787 31.8042 33.9754 31.6463C31.9707 31.4705 29.7842 31.1259 27.5137 30.7515C27.5847 30.6573 27.6524 30.5586 27.6934 30.4276ZM38.0889 27.6029C38.114 27.6046 38.1386 27.609 38.1638 27.6108C39.2524 27.6739 39.5491 26.2978 38.6967 25.8265C37.9265 25.4003 37.0804 25.0912 36.2054 24.8777C36.0034 24.6265 35.827 24.363 35.6077 24.1206C36.1918 23.691 36.7499 23.4056 37.2969 23.1859C37.2481 24.0242 38.4633 24.0991 38.9151 23.5524C39.1012 23.328 39.2495 23.0785 39.4022 22.8321C41.0103 22.9641 42.4763 24.0132 43.8621 25.8344C45.2846 27.7033 46.3278 29.7778 47.4657 31.7998C45.1396 31.9265 42.8005 31.973 40.4498 31.9418C39.6578 30.4876 38.9214 29.0194 38.0889 27.6029ZM8.75513 21.331C8.34152 21.367 7.9366 21.4511 7.54231 21.5616C7.537 21.5603 7.5341 21.5568 7.52879 21.5555C6.4788 21.2788 5.40563 21.0802 4.36338 20.7804C2.78044 20.3249 2.59344 18.7036 2.55237 17.2805C4.37015 17.5063 6.20145 17.2613 8.03082 17.8281C8.64641 18.0188 9.12043 17.5278 9.18566 17.0302C9.41082 15.3029 9.61908 12.1099 12.3902 12.5913C14.3582 12.9333 15.8996 14.6874 17.2197 15.9118C18.1102 16.7378 19.2965 15.5896 18.649 14.715C21.8246 10.3809 27.7393 7.65527 29.3257 14.6865C29.4426 15.2056 30.1969 15.6313 30.7603 15.4252C33.642 14.3708 36.7818 13.7777 37.9019 17.1543C38.3517 18.5098 37.9995 19.8816 37.6661 21.2416C36.462 21.5108 35.1796 22.1574 33.8107 23.2973C28.5608 17.8742 14.2466 14.5094 13.5387 23.0211C12.4501 21.8571 10.8623 21.1478 8.75513 21.331ZM85.3394 30.3232C78.0736 43.906 61.7547 50.1288 45.5257 50.515C28.382 50.9236 15.357 43.9661 6.39231 31.4758C6.42517 31.4749 6.45126 31.496 6.48557 31.489C10.3511 30.6766 16.2408 32.4166 20.0106 32.9541C25.2311 33.6977 30.4438 34.4754 35.6932 35.0326C52.5277 36.82 68.8258 32.4333 85.3394 30.3232ZM60.0123 24.4652C63.4981 24.1088 66.0851 26.7958 67.0906 29.5174C63.4106 30.0926 59.7326 30.6306 56.0419 31.0562C56.0468 31.0054 56.0526 30.955 56.0419 30.8967C55.494 28.0808 56.3947 24.8348 60.0123 24.4652ZM80.2746 27.2074C80.2398 27.2956 80.247 27.3762 80.2374 27.46C76.4892 28.0141 72.7609 28.6222 69.0389 29.2136C69.0307 29.154 69.0398 29.1001 69.0167 29.0365C67.6951 25.3153 64.032 21.8764 59.3489 22.7085C54.7378 23.5279 53.5023 27.5069 54.9963 31.1571C54.9973 31.1601 55.0002 31.1619 55.0011 31.165C54.1053 31.2627 53.2104 31.3658 52.3126 31.4482C50.9462 26.1632 54.3222 22.3091 60.0418 21.2017C65.8667 20.0737 70.1043 22.9777 71.8704 27.7778C72.2309 28.7568 73.9563 28.6336 73.9153 27.5266C73.8032 24.4924 72.2995 22.3231 70.1092 20.9351C70.1275 20.8922 70.1594 20.8645 70.1724 20.8168C72.2932 13.4734 66.2223 9.79427 61.172 12.594C61.173 12.5435 61.187 12.4979 61.1788 12.4445C60.9531 11.0731 60.7937 9.70878 61.1184 8.39136C61.8693 8.46633 62.6849 7.72892 62.2524 6.90252C62.1891 6.78108 62.12 6.67849 62.0553 6.56232C63.7271 5.16028 66.7225 9.27782 67.0341 9.69606C67.4815 10.2967 68.2885 10.3817 68.8886 9.91308C70.0777 8.98496 71.2553 8.13138 72.3178 7.15504C72.9677 8.65835 73.9046 10.1183 74.6589 11.4931C74.9807 12.0797 75.8297 12.1915 76.4163 11.9113C77.5387 11.3752 81.371 9.28966 82.2421 11.4085C82.6809 12.476 82.1136 13.9201 81.8049 15.1898C80.9201 15.5024 80.0634 15.9149 79.2724 16.4954C75.591 19.1964 73.8583 23.4941 75.2871 27.6476C75.4494 28.1202 76.3018 28.0553 76.2675 27.5275C75.835 20.8992 81.4657 15.5019 88.3913 17.3222C84.7026 19.8584 81.8677 23.1693 80.2746 27.2074Z" fill="black"/>
</svg>
