<svg width="94" height="41" viewBox="0 0 94 41" fill="none" xmlns="http://www.w3.org/2000/svg">
<path d="M90.3435 28.2494C92.3287 28.2494 93.9438 26.7839 93.9438 24.9828C93.9438 23.3613 92.6333 22.0156 90.9238 21.7627V18.2562C90.9238 17.774 90.6229 17.3334 90.1471 17.1187C89.6711 16.9042 89.1022 16.9523 88.6786 17.2433C87.7479 17.8825 86.6862 18.2937 85.5867 18.4796V16.4708H89.4054C90.1787 16.4708 90.8055 15.902 90.8055 15.2005C90.8055 11.1239 86.0682 7.41582 77.4663 4.759C69.3349 2.24754 58.5513 0.864502 47.1022 0.864502C35.6531 0.864502 24.8695 2.24772 16.738 4.759C8.13618 7.41582 3.39881 11.1239 3.39881 15.2005C3.39881 15.902 4.02566 16.4708 4.79892 16.4708H8.61762V18.4796C7.51813 18.2937 6.45645 17.8823 5.52578 17.2432C5.10195 16.9521 4.5333 16.9038 4.05747 17.1185C3.58163 17.3332 3.28081 17.7738 3.28081 18.256V21.7625C1.57127 22.0156 0.260773 23.3613 0.260773 24.9828C0.260773 26.7839 1.8759 28.2494 3.86105 28.2494H5.20495V29.7012H4.79912C4.02586 29.7012 3.39901 30.2699 3.39901 30.9715C3.39901 36.0247 7.92996 40.1357 13.4994 40.1357H80.7054C86.2748 40.1357 90.8057 36.0247 90.8057 30.9715C90.8057 30.2699 90.1789 29.7012 89.4056 29.7012H88.9998V28.2494H90.3435ZM17.6407 7.16411C20.8098 6.18522 24.4056 5.38437 28.3005 4.77678L34.0934 10.0327C34.3668 10.2808 34.725 10.4047 35.0835 10.4047C35.4419 10.4047 35.8001 10.2806 36.0735 10.0327C36.6204 9.53656 36.6204 8.73225 36.0735 8.23628L31.7366 4.30131C35.0423 3.89825 38.5219 3.62676 42.108 3.49592L49.3105 10.0325C49.584 10.2806 49.9422 10.4047 50.3006 10.4047C50.6589 10.4047 51.0171 10.2808 51.2905 10.0327C51.8373 9.53674 51.8373 8.73225 51.2907 8.23628L45.9727 3.4099C46.3485 3.40681 46.7251 3.405 47.1026 3.405C50.7239 3.405 54.2719 3.54673 57.6824 3.81985L64.5297 10.0327C64.8031 10.2808 65.1614 10.4047 65.5198 10.4047C65.878 10.4047 66.2365 10.2806 66.5099 10.0327C67.0565 9.53674 67.0565 8.73225 66.5099 8.23628L62.1267 4.25921C67.4847 4.89547 72.3937 5.87599 76.5642 7.16411C82.7609 9.07797 86.7056 11.4883 87.7359 13.9301H6.46885C7.49933 11.4883 11.4438 9.07797 17.6407 7.16411ZM82.7867 16.4708V18.4685C81.7114 18.2772 80.6746 17.8693 79.7633 17.2433C79.2636 16.9 78.573 16.9 78.0734 17.2433C75.4488 19.0458 71.7831 19.046 69.1581 17.2433C68.6584 16.9 67.9678 16.9 67.4681 17.2433C64.8437 19.046 61.1777 19.0458 58.5529 17.2433C58.0532 16.9 57.3626 16.9 56.8629 17.2433C54.2387 19.0458 50.5724 19.046 47.9474 17.2433C47.4478 16.9 46.7574 16.9 46.2575 17.2433C43.6329 19.046 39.9668 19.046 37.3422 17.2433C36.8424 16.9 36.1521 16.9 35.6523 17.2433C33.0277 19.046 29.3616 19.046 26.737 17.2433C26.2372 16.9 25.5469 16.9 25.0471 17.2433C22.4225 19.046 18.7562 19.046 16.1316 17.2433C15.6318 16.9 14.9415 16.9 14.4417 17.2433C13.5304 17.8693 12.4935 18.2772 11.4184 18.4685V16.4708H82.7867ZM15.2863 19.7906C18.5286 21.5806 22.6493 21.5808 25.8917 19.7906C29.134 21.5808 33.2549 21.5808 36.497 19.7906C39.739 21.5808 43.8601 21.5808 47.1024 19.7906C50.3446 21.581 54.4655 21.5808 57.7076 19.7906C60.9498 21.5808 65.0704 21.581 68.3128 19.7906C71.5555 21.581 75.676 21.5808 78.918 19.7906C81.7092 21.3317 85.1509 21.5463 88.1233 20.4341V21.7162H6.08102V20.4341C9.05285 21.5462 12.4951 21.3317 15.2863 19.7906ZM3.06099 24.9828C3.06099 24.5824 3.41982 24.2569 3.86105 24.2569H90.3435C90.7847 24.2569 91.1436 24.5824 91.1436 24.9828C91.1436 25.3831 90.7847 25.7087 90.3435 25.7087H3.86105C3.41982 25.7087 3.06099 25.3831 3.06099 24.9828ZM62.4854 29.7012V28.2494H74.6863V29.7012H62.4854ZM33.8832 28.2494V29.7012H16.0818V28.2494H33.8832ZM36.6834 28.2494H41.2837V29.7012H36.6834V28.2494ZM44.0839 28.2494H59.6851V29.7012H44.0839V28.2494ZM8.00517 28.2494H13.2816V29.7012H8.00517V28.2494ZM80.7054 37.5951H13.4994C9.95292 37.5951 6.98909 35.2883 6.33404 32.2419H87.8709C87.2159 35.2883 84.2518 37.5951 80.7054 37.5951ZM86.1996 29.7012H77.4865V28.2494H86.1996V29.7012Z" fill="black"/>
</svg>
