<svg width="93" height="77" viewBox="0 0 93 77" fill="none" xmlns="http://www.w3.org/2000/svg">
<path d="M56.0152 49.884C56.8654 49.884 57.5553 49.2479 57.5553 48.4611C57.5553 42.9701 52.7195 38.5007 46.7747 38.5007C45.9246 38.5007 45.2347 39.1368 45.2347 39.9236C45.2347 40.7105 45.9246 41.3465 46.7747 41.3465C51.0208 41.3465 54.4752 44.5381 54.4752 48.4611C54.4752 49.2465 55.1636 49.884 56.0152 49.884Z" fill="black"/>
<path d="M60.6355 49.8839C61.4856 49.8839 62.1756 49.2478 62.1756 48.461C62.1756 40.6151 55.2668 34.2319 46.7748 34.2319C43.3773 34.2319 40.6144 36.7846 40.6144 39.9236C40.6144 40.7104 41.3044 41.3465 42.1545 41.3465C43.0046 41.3465 43.6946 40.7104 43.6946 39.9236C43.6946 38.3541 45.076 37.0777 46.7748 37.0777C53.5681 37.0777 59.0954 42.1845 59.0954 48.461C59.0954 49.2464 59.7838 49.8839 60.6355 49.8839Z" fill="black"/>
<path d="M46.7747 42.7694C45.9246 42.7694 45.2347 43.4054 45.2347 44.1923C45.2347 44.9792 45.9246 45.6152 46.7747 45.6152C48.4735 45.6152 49.8549 46.8916 49.8549 48.461C49.8549 49.2479 50.5449 49.8839 51.395 49.8839C52.2451 49.8839 52.9351 49.2479 52.9351 48.461C52.9351 45.3221 50.1706 42.7694 46.7747 42.7694Z" fill="black"/>
<path d="M65.2558 49.8839C66.1059 49.8839 66.7958 49.2479 66.7958 48.461C66.7958 38.2616 57.8141 29.9633 46.7747 29.9633H43.6946C39.4486 29.9633 35.9942 33.1548 35.9942 37.0778C35.9942 37.8646 36.6841 38.5007 37.5342 38.5007C38.3844 38.5007 39.0743 37.8646 39.0743 37.0778C39.0743 34.7243 41.1473 32.8091 43.6946 32.8091H46.7747C56.1154 32.8091 63.7157 39.8311 63.7157 48.461C63.7157 49.2464 64.4041 49.8839 65.2558 49.8839Z" fill="black"/>
<path d="M25.2136 17.1571C26.0637 17.1571 26.7537 16.5211 26.7537 15.7342H34.4541C36.9598 15.7342 39.1683 14.6059 40.5744 12.8884H83.7368C86.2841 12.8884 88.357 10.9732 88.357 8.6197C88.357 6.26622 86.2841 4.35099 83.7368 4.35099H40.5744C39.1667 2.63354 36.9583 1.50518 34.4541 1.50518H26.7537C26.7537 0.718313 26.0637 0.0822754 25.2136 0.0822754C24.3634 0.0822754 23.6735 0.718313 23.6735 1.50518V15.7342C23.6735 16.5197 24.3619 17.1571 25.2136 17.1571ZM83.7368 7.19679C84.5853 7.19679 85.2768 7.83426 85.2768 8.6197C85.2768 9.40514 84.5853 10.0426 83.7368 10.0426H41.9989C42.1006 9.583 42.1545 9.10633 42.1545 8.6197C42.1545 8.13307 42.1006 7.65639 41.9989 7.19679H83.7368ZM34.4541 4.35099C36.0003 4.35099 37.3648 5.06244 38.2026 6.14385L38.4229 6.49246C38.6292 6.8183 38.7817 7.15411 38.8895 7.49418C38.8972 7.51837 38.908 7.54256 38.9142 7.56817C39.0173 7.91394 39.0728 8.2654 39.0728 8.6197C39.0728 8.974 39.0173 9.32546 38.9142 9.67122C38.9065 9.69684 38.8972 9.7196 38.8895 9.74522C38.7817 10.0853 38.6292 10.4211 38.4229 10.7469L38.2026 11.0956C37.3633 12.177 36.0003 12.8884 34.4541 12.8884H26.7537V10.0454C27.8718 10.0469 29.7537 10.0483 32.914 10.0483C33.7641 10.0483 34.4541 9.41226 34.4541 8.62539C34.4541 7.83852 33.7641 7.20249 32.914 7.20249C29.7476 7.20249 27.8671 7.20106 26.7537 7.19964V4.35099H34.4541Z" fill="black"/>
<path d="M20.5933 17.1571C21.4434 17.1571 22.1334 16.5211 22.1334 15.7342V1.50518C22.1334 0.718313 21.4434 0.0822754 20.5933 0.0822754C19.7432 0.0822754 19.0532 0.718313 19.0532 1.50518V15.7342C19.0532 16.5197 19.7417 17.1571 20.5933 17.1571Z" fill="black"/>
<path d="M20.5933 35.6549C21.4434 35.6549 22.1334 35.0189 22.1334 34.232V20.003C22.1334 19.2161 21.4434 18.5801 20.5933 18.5801C19.7432 18.5801 19.0532 19.2161 19.0532 20.003V34.232C19.0532 35.0175 19.7417 35.6549 20.5933 35.6549Z" fill="black"/>
<path d="M15.9731 20.0029C15.123 20.0029 14.433 20.639 14.433 21.4258V35.6549C14.433 36.4417 15.123 37.0778 15.9731 37.0778C16.8232 37.0778 17.5132 36.4417 17.5132 35.6549V21.4258C17.5132 20.639 16.8232 20.0029 15.9731 20.0029Z" fill="black"/>
<path d="M8.27266 11.4655C7.42253 11.4655 6.73257 12.1015 6.73257 12.8884C6.73257 13.6753 7.42253 14.3113 8.27266 14.3113H14.433V17.5683C14.433 18.3552 15.123 18.9912 15.9731 18.9912C16.8232 18.9912 17.5132 18.3552 17.5132 17.5683V1.50518C17.5132 0.718313 16.8232 0.0822754 15.9731 0.0822754C15.123 0.0822754 14.433 0.718313 14.433 1.50518V2.92808H8.27266C7.42253 2.92808 6.73257 3.56412 6.73257 4.35099C6.73257 5.13785 7.42253 5.77389 8.27266 5.77389H14.433V7.19679H8.27266C7.42253 7.19679 6.73257 7.83283 6.73257 8.6197C6.73257 9.40656 7.42253 10.0426 8.27266 10.0426H14.433V11.4655H8.27266Z" fill="black"/>
<path d="M79.038 65.5358C78.2557 57.5704 70.9972 51.3068 62.1756 51.3068H51.395C50.5449 51.3068 49.855 51.9428 49.855 52.7297C49.855 53.5166 50.5449 54.1526 51.395 54.1526H62.1756C69.297 54.1526 75.177 59.1427 75.9455 65.5358H74.39C73.6277 59.9296 68.4469 55.5755 62.1756 55.5755H52.9351C52.085 55.5755 51.395 56.2115 51.395 56.9984C51.395 57.7853 52.085 58.4213 52.9351 58.4213H62.1756C66.7451 58.4213 70.5398 61.5047 71.2775 65.5358H69.7205C69.0044 62.293 65.8949 59.8442 62.1756 59.8442H54.4752C53.6251 59.8442 52.9351 60.4802 52.9351 61.2671C52.9351 62.054 53.6251 62.69 54.4752 62.69H62.1756C64.1808 62.69 65.8749 63.8838 66.5125 65.5358H63.7157C63.7157 64.749 63.0258 64.1129 62.1756 64.1129H54.4752C53.6251 64.1129 52.9351 64.749 52.9351 65.5358H51.3689C50.8283 44.595 38.4044 37.0778 26.7537 37.0778H25.2136C16.7216 37.0778 9.81274 43.4609 9.81274 51.3068V58.4213C9.81274 59.2082 10.5027 59.8442 11.3528 59.8442C12.203 59.8442 12.8929 59.2082 12.8929 58.4213V51.3068C12.8929 45.0304 18.4203 39.9236 25.2136 39.9236H26.7537C42.076 39.9236 47.8913 52.8948 48.2918 65.5358H46.7532C46.322 50.3549 38.9142 41.3465 26.7521 41.3465C20.8074 41.3465 15.9715 45.8158 15.9715 51.3068V52.7297C15.9715 53.5166 16.6615 54.1526 17.5116 54.1526C18.3618 54.1526 19.0517 53.5166 19.0517 52.7297V51.3068C19.0517 47.3838 22.5061 44.1923 26.7521 44.1923C41.0626 44.1923 43.4251 58.1367 43.6684 65.5358H42.1314C41.6894 49.1212 33.584 45.6152 26.7521 45.6152C24.2048 45.6152 22.1319 47.5304 22.1319 49.8839C22.1319 50.6708 22.8218 51.3068 23.672 51.3068C24.5221 51.3068 25.2121 50.6708 25.2121 49.8839C25.2121 49.0984 25.9036 48.461 26.7521 48.461C34.7159 48.461 38.7371 54.0615 39.0436 65.5358H37.5327C37.5327 64.749 36.8428 64.1129 35.9926 64.1129H28.2922C27.4421 64.1129 26.7521 64.749 26.7521 65.5358H23.9553C24.5929 63.8838 26.287 62.69 28.2922 62.69H35.9926C36.8428 62.69 37.5327 62.054 37.5327 61.2671C37.5327 60.4802 36.8428 59.8442 35.9926 59.8442H28.2922C24.5745 59.8442 21.4635 62.293 20.7473 65.5358H19.1903C19.9265 61.5047 23.7213 58.4213 28.2922 58.4213H34.4526C35.3027 58.4213 35.9926 57.7853 35.9926 56.9984C35.9926 56.2115 35.3027 55.5755 34.4526 55.5755H28.2922C22.021 55.5755 16.8402 59.9296 16.0778 65.5358H14.5223C15.2924 59.1427 21.1709 54.1526 28.2922 54.1526H31.3724C32.2225 54.1526 32.9125 53.5166 32.9125 52.7297C32.9125 51.9428 32.2225 51.3068 31.3724 51.3068H28.2922C19.4706 51.3068 12.2107 57.5704 11.4298 65.5358H0.773985L5.46354 72.0342C7.67049 75.092 11.3636 76.9191 15.3432 76.9191H78.2064C82.1844 76.9191 85.8775 75.0935 88.086 72.0342L92.7756 65.5358H79.038ZM85.5218 70.4562C83.8877 72.7215 81.1526 74.0732 78.2064 74.0732H15.3416C12.3939 74.0732 9.66028 72.7215 8.02625 70.4562L6.52928 68.3816H43.6931H51.3935H87.0187L85.5218 70.4562Z" fill="black"/>
</svg>
