<svg width="50" height="51" viewBox="0 0 50 51" fill="none" xmlns="http://www.w3.org/2000/svg">
<g clip-path="url(#clip0_107_1825)">
<path d="M34.6945 16.0915L34.918 16.4166H35.3125H49.0723L41.8937 49.9166H8.10631L0.92774 16.4166H14.6875H15.082L15.3055 16.0915L25 1.99048L34.6945 16.0915ZM47.6409 18.3238L47.8352 17.4166H46.9075H33.9975H16.0025H3.0925H2.16475L2.35915 18.3238L8.7879 48.3238L8.91494 48.9166H9.52125H40.4787H41.0851L41.2121 48.3238L47.6409 18.3238ZM25.618 4.65424L25 3.75526L24.382 4.65424L17.1032 15.2417L16.2955 16.4166H17.7213H32.2788H33.7045L32.8968 15.2417L25.618 4.65424Z" stroke="black" stroke-width="1.5"/>
<path d="M17 31.6666L33 31.6666" stroke="black" stroke-width="1.5"/>
<path d="M25 23.6666V39.6666" stroke="black" stroke-width="1.5"/>
</g>
<defs>
<clipPath id="clip0_107_1825">
<rect width="50" height="50" fill="white" transform="translate(0 0.666626)"/>
</clipPath>
</defs>
</svg>
