<svg width="50" height="50" viewBox="0 0 50 50" fill="none" xmlns="http://www.w3.org/2000/svg">
<g clip-path="url(#clip0_107_1830)">
<path d="M35.1667 6.25V10.4167M6 0L43.5 0L43.5 50L6 50L6 0ZM11.2083 4.16667L38.2917 4.16667V12.5L11.2083 12.5L11.2083 4.16667Z" stroke="black"/>
<path d="M23.7083 16.6667H18.5V20.8334H23.7083V16.6667Z" stroke="black"/>
<path d="M15.375 16.6667H10.1667V20.8334H15.375V16.6667Z" stroke="black"/>
<path d="M31 16.6667H25.7917V20.8334H31V16.6667Z" stroke="black"/>
<path d="M39.3333 16.6667H34.125V20.8334H39.3333V16.6667Z" stroke="black"/>
<path d="M23.7083 33.3333H18.5V37.5H23.7083V33.3333Z" stroke="black"/>
<path d="M15.375 33.3333H10.1667V37.5H15.375V33.3333Z" stroke="black"/>
<path d="M31 33.3333H25.7917V37.5H31V33.3333Z" stroke="black"/>
<path d="M23.7083 40.625H18.5V44.7917H23.7083V40.625Z" stroke="black"/>
<path d="M15.375 40.625H10.1667V44.7917H15.375V40.625Z" stroke="black"/>
<path d="M31 40.625H25.7917V44.7917H31V40.625Z" stroke="black"/>
<path d="M39.3333 33.3333H34.125V44.7916H39.3333V33.3333Z" stroke="black"/>
<path d="M23.7083 25H18.5V29.1667H23.7083V25Z" stroke="black"/>
<path d="M15.375 25H10.1667V29.1667H15.375V25Z" stroke="black"/>
<path d="M31 25H25.7917V29.1667H31V25Z" stroke="black"/>
<path d="M39.3333 25H34.125V29.1667H39.3333V25Z" stroke="black"/>
</g>
<defs>
<clipPath id="clip0_107_1830">
<rect width="50" height="50" fill="white"/>
</clipPath>
</defs>
</svg>
